<svg xmlns="http://www.w3.org/2000/svg" width="118" height="40" viewBox="0 0 118 40">
  <path fill="#FFBC4B" d="M67.3385908,32.0030427 C67.3384096,32.0043228 67.3380472,32.0054201 67.337866,32.0067003 C67.6254253,31.6522731 67.9003008,31.2859586 68.1612242,30.9072079 C68.0327557,30.8737404 67.892147,30.8300313 67.7422972,30.7779097 C67.1079273,31.1204495 66.3601282,31.4249496 65.506329,31.6606858 C65.0616721,32.6872078 64.4923518,33.6793479 63.7708262,34.599615 C63.8269972,34.6650871 63.8630554,34.7596376 63.8630554,34.901189 C63.8630554,35.0805972 63.7856843,35.2499469 63.646344,35.4043001 C65.333286,34.3510771 66.0035329,33.0306621 66.2182511,32.3805131 C66.6540294,31.060281 67.3385908,32.0030427 67.3385908,32.0030427 M41.4783676,35.9789184 C41.7882141,36.1978293 42.1036777,36.4035726 42.4233088,36.599806 C41.6236874,35.8759552 41.0512868,34.7806692 40.833307,33.2380513 C40.8030472,33.2351252 40.7738745,33.2311018 40.7437958,33.2279928 C39.9604822,33.4873208 39.292772,33.6208254 38.7720125,33.6083893 C39.5922903,34.4845816 40.4941067,35.2835973 41.4783676,35.9789184 M39.8405299,4.35296699 C39.9635625,4.29096967 40.0909438,4.23025252 40.2215867,4.17044979 C40.8304079,3.50969363 41.5950583,2.93745283 42.5311209,2.67282118 C42.5311209,2.67282118 42.7876955,2.55083824 43.2450362,2.38423186 C43.2649678,2.37435618 43.2852619,2.36466338 43.3051935,2.3547877 C41.9204877,2.47110127 40.6644316,3.0301745 39.8405299,4.35296699 M45.5388062,1.7503595 C46.7736623,1.50584497 48.3151033,1.3498458 50.0172658,1.5023702 C51.0479131,1.10057632 52.7308688,0.516996774 54.2547337,0.311984968 C51.3039442,0.142086693 48.3082178,0.662022966 45.5388062,1.7503595 M56.8708528,0.650867105 C56.9016563,0.748526609 56.9306478,0.944577149 56.8708528,1.30485659 C56.8708528,1.30485659 56.8320767,1.73152255 56.2939223,1.63532611 C55.8876791,1.56125851 53.9682616,1.25291783 51.5873359,1.72914507 C52.6754226,1.9478731 53.8066341,2.304312 54.950167,2.85442397 C54.950167,2.85442397 54.9780713,2.86393388 55.0286252,2.88313659 C55.4071452,2.9303204 55.7898328,2.98353934 56.1812179,3.04937721 C57.4649971,3.26536199 58.6449505,3.54535581 59.7297756,3.87893434 C61.0632027,3.34235572 62.1974946,3.20629079 63.1263093,3.27377461 C62.0423901,2.5459004 60.8771136,1.93324246 59.6442507,1.45847828 C58.739354,1.10972047 57.8116265,0.842711337 56.8708528,0.650867105 M66.0107808,30.3292978 C66.1330886,30.2896122 66.2526785,30.2484635 66.3684632,30.2053031 C66.2764153,30.1626914 66.1841861,30.1191652 66.091957,30.0750904 C66.0656834,30.1599481 66.0385039,30.2448058 66.0107808,30.3292978 M64.9361027,30.6125835 C65.0504379,30.3062545 65.1593371,29.9911472 65.2602637,29.6645182 C64.9496925,29.5066902 64.6577844,29.3536171 64.402297,29.2175522 C64.2064233,29.2683937 64.0076504,29.3175892 63.8063408,29.3651388 C63.7802484,29.832039 63.7360364,30.3150329 63.6704432,30.8049764 C64.1192676,30.76017 64.5407313,30.6946979 64.9361027,30.6125835 M64.3879824,31.9161733 C64.0870146,31.9714039 63.7762621,32.0187706 63.4542754,32.0560787 C63.2542342,32.9895134 62.960333,33.9247769 62.5399565,34.8097476 C62.5633309,34.8015178 62.5867053,34.7943854 62.610442,34.7857899 C62.610442,34.7857899 62.6202267,34.7803034 62.6339976,34.7724394 C63.2667368,33.9644625 63.8674041,33.0174945 64.3879824,31.9161733 M52.5518464,39.2942208 C52.5795695,39.2940379 52.6074738,39.293855 52.6353781,39.2934892 C52.4976685,39.2773955 52.3585094,39.2600217 52.2173571,39.2406361 C52.3275248,39.2596559 52.4389608,39.2775784 52.5518464,39.2942208 M44.6360839,37.7506885 C45.6132781,38.1736968 46.6218194,38.5069096 47.6517419,38.753253 C47.6526478,38.7435602 47.6506547,38.7345989 47.652829,38.7247232 C47.652829,38.7247232 47.6714923,38.3275014 47.9260738,38.1643698 C47.7966993,38.1153572 47.6673248,38.0643328 47.5377691,38.0114796 C46.4110875,38.1043842 45.4362488,37.9778292 44.6360839,37.7506885 M41.429988,33.618265 C41.8403987,35.6899633 42.7746493,36.4417951 42.7746493,36.4417951 C44.0709311,37.296773 45.404177,37.648457 46.7198468,37.6533948 C44.8575063,36.7790313 43.0136479,35.493547 41.429988,33.618265 M37.9709415,32.7001925 C38.2416495,32.8483277 38.6141901,32.8986206 39.0733427,32.8607638 C39.0590282,32.8558259 39.0443512,32.8508881 39.0302179,32.8455845 C38.8586245,32.8020583 38.7058756,32.7420727 38.575414,32.6639817 C38.1483332,32.4715888 37.7583977,32.2371329 37.40144,31.9688436 C37.5858984,32.2168329 37.7747054,32.4615303 37.9709415,32.7001925 M33.7912754,23.9444876 C33.8175489,23.9678967 33.8440036,23.9914886 33.8724515,24.0152633 C33.7820344,23.075062 33.7553984,22.1723517 33.7650019,21.3683982 C33.6407009,21.4903811 33.5327076,21.6103523 33.4402972,21.728129 C33.5174871,22.4726455 33.6350838,23.21259 33.7912754,23.9444876 M33.37561,20.9753827 C33.5017229,20.8649214 33.6379829,20.7539114 33.7838463,20.6425357 C33.7956241,20.3491914 33.8115694,20.0754156 33.8302327,19.8239515 C33.6649812,19.2738396 33.5394119,18.7458564 33.4470015,18.2416481 C33.394092,18.6959294 33.4373981,19.1964801 33.6015624,19.749701 C33.6015624,19.749701 33.4674767,19.9199651 33.3321227,19.9099065 C33.3381022,20.265431 33.3518732,20.6205897 33.37561,20.9753827 M33.7813096,15.2654107 C33.7599283,15.7515136 33.7702566,16.2248147 33.8017848,16.6809249 C33.9715662,16.4426284 34.1783117,16.2045147 34.4281821,15.9720705 C34.2547767,15.2873567 34.1449715,14.6052032 34.1143492,13.9325597 C33.9876927,14.3731247 33.8771627,14.8175303 33.7813096,15.2654107 M34.9938784,11.5280144 C34.6689926,12.5978798 34.5050095,13.9513966 34.7898508,15.5686307 C35.0438887,14.8632511 35.3606207,14.0953255 35.7463886,13.2979558 C35.9141769,12.9325556 36.1084198,12.5556338 36.3303859,12.170848 C36.491651,11.8795155 36.6614324,11.586537 36.8419044,11.2930098 C36.5668477,10.4330941 36.4423655,9.60957209 36.4914698,8.83926904 C35.9174384,9.68693159 35.4173353,10.5865329 34.9938784,11.5280144 M48.7862149,2.02797584 C48.1853664,2.0005434 47.5638614,2.00273799 46.9361958,2.04553261 C47.2982269,2.13752274 47.6751163,2.25145883 48.0661389,2.38715799 C48.2893733,2.27175884 48.5289155,2.15197049 48.7862149,2.02797584 M53.2278916,2.72256535 C52.4404104,2.5159076 51.3345664,2.2732219 50.0716249,2.13075607 C49.7675767,2.23207323 49.4600857,2.3472895 49.1507828,2.47914812 C49.0137981,2.53748779 48.8856919,2.59326709 48.7617533,2.64740045 C48.9436749,2.72018787 49.1284956,2.7971816 49.3167591,2.87947893 C50.5293279,2.7112266 51.8306832,2.65124099 53.2278916,2.72256535 M54.7667958,3.23152864 C53.1887531,3.04827991 51.7245019,3.0268826 50.3695124,3.14374482 C52.4286326,3.49744048 54.6515547,4.18398313 56.9804769,5.31785752 C57.198819,5.18837638 57.415168,5.06237002 57.6284366,4.94130149 C56.7643091,4.30358859 55.8128448,3.72494689 54.7667958,3.23152864 M59.1836485,4.11649932 C58.2635313,3.85022172 57.2734721,3.62180089 56.2051359,3.43836928 C56.727345,3.72202076 57.3823713,4.12235157 58.1138627,4.66990317 C58.2803826,4.57846169 58.4454528,4.48866615 58.6081676,4.40197963 C58.8040413,4.29755345 58.9950227,4.20446602 59.1836485,4.11649932 M59.97874,4.36119673 C59.4920454,4.51957337 59.1899904,4.67410948 59.1899904,4.67410948 C58.9720107,4.78091313 58.7576549,4.89119156 58.5445675,5.00293305 C59.1959699,5.52286933 59.8950271,6.15472998 60.6049561,6.91735195 C62.1878911,6.78841945 63.566255,6.86212129 64.7643282,7.0960286 C64.7811795,6.96490152 64.794588,6.83542038 64.8041914,6.70813383 C63.4912396,5.7948163 61.9006942,4.99159431 59.97874,4.36119673 M64.6266186,4.84949425 C63.2957282,3.86722983 61.7435966,3.9330677 60.6384775,4.18069124 C62.2480485,4.74835997 63.6325731,5.4383774 64.8215863,6.21270388 C64.8197744,5.72458924 64.7570803,5.26829624 64.6266186,4.84949425 M67.8999384,7.91881907 C67.8343452,7.90656591 67.7653092,7.89815329 67.6881194,7.89815329 C67.6533296,7.89815329 67.6149159,7.89961636 67.5775894,7.90053077 C67.5821193,7.96197945 67.5851996,8.02379389 67.5870116,8.08615698 C67.8472102,8.22734263 68.0940002,8.37840396 68.3284688,8.53860944 C68.1896721,8.32902556 68.0465266,8.12273358 67.8999384,7.91881907 M69.2174202,28.0780084 C69.4029657,27.7499164 69.5537214,27.4165208 69.6707746,27.07709 C68.8816626,27.5785551 67.9294735,28.041249 66.8441048,28.4499924 C67.2668369,28.8086259 67.6303176,29.130317 67.9263932,29.4090307 C68.5344895,28.9905944 68.9639259,28.5264375 69.2174202,28.0780084 M66.3180905,29.2824757 C66.5724908,29.445973 66.8627681,29.6305019 67.1970761,29.8415489 C67.2856813,29.7963768 67.3715686,29.7499245 67.4551003,29.7027407 C67.1539513,29.453837 66.7940945,29.1641504 66.4202855,28.8669656 C66.3878513,29.005408 66.3537863,29.1440333 66.3180905,29.2824757 M64.2658558,27.8133768 C64.4945261,27.7784461 64.7192102,27.7424182 64.939183,27.7051101 C64.347032,27.2453423 63.9145153,26.9137755 63.9145153,26.9137755 C63.8761015,26.88488 63.8364194,26.8552529 63.7976433,26.8261745 C63.8108707,27.0480116 63.8217425,27.2802729 63.8288092,27.5229586 C63.9500298,27.5522199 64.0817599,27.6418326 64.253172,27.8016723 C64.2573396,27.8055128 64.2616883,27.8093534 64.2658558,27.8133768 M60.9341906,36.2484878 C60.6649322,36.2547059 60.3869763,36.2470248 60.1041282,36.2225185 C60.1041282,36.2225185 57.7349803,36.3280419 54.2049046,35.2525072 C53.5968082,35.6941696 53.0057443,36.0740175 52.4338873,36.3968059 C53.7680392,36.7355052 54.5723717,36.7801286 54.5723717,36.7801286 C57.109489,37.0665234 59.1093578,36.9390539 60.6843203,36.5807862 C60.7691204,36.4739825 60.8522897,36.3627897 60.9341906,36.2484878 M48.4910454,37.8838273 C50.1377617,38.5083727 51.7645464,38.8428656 53.2150266,39.0056314 C52.0077125,38.8276863 50.6616016,38.4427177 49.3140411,37.6985669 C49.0328237,37.7735489 48.7583106,37.8349976 48.4910454,37.8838273 M38.021133,31.7898011 C38.0146099,31.7363993 38.008268,31.6822659 38.0026509,31.6274011 C37.5795565,31.4273271 37.2689852,31.1626954 37.0406772,30.886725 L37.0615149,30.9812755 C37.3523357,31.2795577 37.6706984,31.5515046 38.021133,31.7898011 M34.5046471,16.2648661 C34.238469,16.5113924 34.0116107,16.7831564 33.8356686,17.0829016 C33.878431,17.513591 33.939132,17.9263579 34.0125167,18.3148013 C34.1103629,17.8014488 34.2772452,17.1255134 34.5274779,16.3422256 C34.5200488,16.3164391 34.511895,16.2906526 34.5046471,16.2648661 M39.0414521,5.83322172 C38.4712258,6.37583548 37.9343398,6.95209971 37.4384042,7.56219728 C37.7252387,7.39101883 38.0693314,7.20868451 38.4699574,7.03348263 C38.5909969,6.73154285 38.7794415,6.30560842 39.0414521,5.83322172 M47.0043258,2.83979333 C46.2788139,2.62545449 45.5154318,2.45610487 44.7580293,2.37801384 C43.895895,2.59143826 43.0540548,2.91111769 42.2692915,3.36850798 C42.2033359,3.40855935 42.1382862,3.44970802 42.0728742,3.49049092 C43.4793236,3.08430785 45.1419853,2.82790594 47.0043258,2.83979333 M56.3113172,5.72385771 C54.5732777,4.88570507 52.9408759,4.31309851 51.4264332,3.94568663 C51.5536333,4.0179254 51.6808335,4.09052994 51.810208,4.16679213 C51.810208,4.16679213 53.1267838,4.85772398 54.9157396,6.64028425 C55.3873948,6.31402104 55.8537953,6.00860649 56.3113172,5.72385771 M59.9406887,6.97605738 C59.3668385,6.37967602 58.7395352,5.80524063 58.0547926,5.26683317 C57.8692471,5.36924764 57.6860571,5.47367381 57.504498,5.57974593 C58.3053877,5.99031819 59.1182365,6.45429227 59.9406887,6.97605738 M56.8347947,5.98281999 C56.3015325,6.31530122 55.7867525,6.66259597 55.2886425,7.02141235 C55.5048103,7.2474557 55.7267764,7.4890441 55.9529099,7.74636043 C56.9025623,7.48630085 57.8804813,7.27653409 58.884855,7.12218087 C58.1865226,6.70045275 57.5032296,6.32188501 56.8347947,5.98281999 M64.6445571,7.79171541 C62.9188389,7.34932151 61.5383007,7.51281888 61.5383007,7.51281888 C61.4098322,7.51775672 61.2820884,7.52562069 61.1541635,7.53311889 C61.3208645,7.72715772 61.4873844,7.92887763 61.653723,8.13809575 C61.9242498,8.33378052 62.1956826,8.5369635 62.467659,8.74563296 C63.2611197,8.42650218 63.9721358,8.18527955 64.5981707,8.00404253 C64.615022,7.93253529 64.6295177,7.86230823 64.6445571,7.79171541 M65.5864179,7.29006743 C65.4632041,7.19204216 65.3374536,7.09511419 65.2088039,6.99928351 C65.2019184,7.06164661 65.1941269,7.12419258 65.1856107,7.18747009 C65.3216894,7.21947461 65.4550503,7.2538566 65.5864179,7.29006743 M70.7492578,24.4196176 C71.0755932,23.3084207 71.0971556,22.1833247 70.907805,21.0803575 C70.1815683,20.1920949 69.0637653,19.379363 67.6660134,18.6458195 C69.4254341,20.7628727 70.4343378,22.6644898 70.7492578,24.4196176 M66.708932,27.3506829 C67.9716924,27.0542296 69.0327807,26.6930357 69.8563201,26.2460698 L69.8916534,26.2102247 C70.2694487,23.9490597 69.1781005,21.4044261 66.41793,18.3500977 C66.696973,19.709101 67.3067002,23.3971189 66.708932,27.3506829 M63.7295133,25.955103 C64.4715142,26.5273438 65.1529952,27.0639224 65.7598233,27.5544145 C65.7674335,27.5529514 65.775225,27.5514884 65.7828353,27.5498424 C66.2880119,24.8856034 66.3541487,21.6633884 65.6971292,17.7983398 C65.6971292,17.7983398 65.6924181,17.7741992 65.6824522,17.7284785 C64.8438735,17.3848414 63.9433255,17.0633332 62.9978407,16.7634051 C62.8588628,16.922879 62.7177105,17.0825359 62.5740215,17.2425585 C63.3297932,18.0190795 64.1011479,18.8455277 64.8886291,19.7270236 C64.8886291,19.7270236 64.8308274,20.4174068 64.2616883,20.0150642 C64.2616883,20.0150642 63.4776498,19.0872989 62.1405988,17.7189686 C62.0288004,17.8398542 61.9164584,17.9609227 61.8024856,18.0819913 C62.463129,19.9473975 63.0493006,22.037567 63.5131644,24.3784689 C63.5131644,24.3784689 63.5524841,24.5754339 63.6037628,24.9208998 C64.0623718,24.8014772 64.5057603,24.6774826 64.9279488,24.5489158 C64.9279488,24.5489158 65.0105746,24.5097789 65.0290566,24.5812861 C65.0332242,24.5966483 65.0381165,24.6315789 64.9841198,24.6500501 C64.7019965,24.7566709 64.2384951,24.9079151 63.6274996,25.0856774 C63.6606586,25.3245225 63.6965355,25.6173181 63.7295133,25.955103 M62.6780284,25.1511495 C62.7151738,25.1421882 62.7521379,25.1334098 62.7892833,25.1244485 C62.4959257,23.0117845 61.9528789,20.8272475 61.2146832,18.696478 C60.2269796,19.7131244 59.1635357,20.7297709 58.0538866,21.7277632 C59.7114747,22.9298529 61.2782833,24.0887823 62.6780284,25.1511495 M53.1706334,26.7978277 C55.4807111,26.5008257 58.8089336,26.012894 61.8225984,25.3472 C60.4784807,24.343904 59.0370603,23.2742216 57.5492536,22.1772895 C55.8909406,23.6418163 54.1414857,25.0587936 52.3947488,26.3676869 C52.653679,26.5149077 52.9122468,26.6588366 53.1706334,26.7978277 M51.5442111,26.9968043 C51.8399242,26.9626052 52.1783998,26.9221881 52.5542019,26.8755529 C52.3961984,26.7853916 52.238376,26.694133 52.0807348,26.6017771 C51.9018935,26.7345502 51.7228711,26.8665917 51.5442111,26.9968043 M41.6610139,32.8889278 C42.3024505,32.9066674 42.9977026,32.8560088 43.7509376,32.727625 C43.5420177,32.5606528 43.3372653,32.3944122 43.1363181,32.2283545 C42.6175517,32.4805501 42.1246965,32.7014727 41.6610139,32.8889278 M38.4616224,31.8026029 C38.4681455,31.8269264 38.4753933,31.8505183 38.4828224,31.8733786 C38.6102037,32.2590788 39.3076302,32.3903888 40.3801339,32.2257941 C40.3230569,32.1407535 40.2652551,32.0566274 40.2090841,31.9693922 C39.5036851,32.0147472 38.9296537,31.9445201 38.4616224,31.8026029 M38.4049078,31.4300703 C38.8691339,31.5655866 39.4020337,31.5972254 39.9545027,31.5617461 C39.5575005,30.9066593 39.1891275,30.1972563 38.8539134,29.4311595 C38.4964122,30.2830284 38.3780907,30.9474422 38.4049078,31.4300703 M37.9767398,31.2641955 C37.9531842,30.6156925 38.0608151,29.8490471 38.5871918,28.7914349 C38.41433,28.3554419 38.2512529,27.9031723 38.1004972,27.4311514 C38.0802032,27.367691 38.0622647,27.305145 38.0425142,27.2418675 C37.8736388,27.039599 37.7096558,26.8384277 37.5516522,26.6387195 C37.3574092,27.0013764 37.1778432,27.3766523 37.0249131,27.7570488 C36.5626801,29.774248 37.0604277,30.8057079 37.9767398,31.2641955 M34.5731395,25.1147557 C34.6448934,26.0178318 34.9386134,27.3133748 35.9239615,28.8768412 C36.0129291,27.8739111 36.3097294,26.8653115 36.6692238,25.9562003 C35.8815614,25.6976038 35.1761624,25.4152325 34.5731395,25.1147557 M34.5535702,24.4944167 C35.0583845,24.7963565 35.7320741,25.1078062 36.6311725,25.4071856 C35.8137938,24.2431355 35.1785179,23.1302927 34.6907362,22.0778012 C34.5995942,23.3883405 34.5711463,23.5273316 34.5834677,23.7864768 C34.5889036,23.9042534 34.5590061,24.1458418 34.5535702,24.4944167 M34.5820181,17.8347335 C34.4959497,18.2081805 34.4385103,18.5240194 34.4060761,18.7681682 C34.3758162,18.9962232 34.3446504,19.2828008 34.317652,19.6141848 C34.3460999,19.715319 34.374729,19.8129785 34.4033581,19.9078948 C34.4644214,19.0077448 34.5233104,18.249695 34.5613617,18.0190795 C34.5684284,17.9766507 34.5747703,17.9146534 34.5820181,17.8347335 M35.3252873,15.6505622 C35.2229111,16.0152309 35.1379299,16.3875806 35.0732426,16.7672456 C35.3017317,17.5413892 35.633503,18.3667401 36.0917497,19.2411035 C36.3729671,19.0995521 36.6677743,18.959098 36.9743592,18.8201069 C37.0740174,17.3173576 37.3289613,15.9250696 37.685013,14.649278 C36.841542,14.8969015 36.019271,15.2226161 35.3252873,15.6505622 M37.0517302,11.8846362 C36.4269637,12.8665348 35.85257,13.988339 35.4586482,15.2081683 C36.0752608,14.841488 36.8455283,14.5102869 37.8035157,14.2423634 C37.8540696,14.0739282 37.9062543,13.9073218 37.9604321,13.7430929 C37.5933274,13.1117809 37.2883732,12.4905275 37.0517302,11.8846362 M37.3715426,11.3979846 C37.5806436,11.9541317 37.8529824,12.5291158 38.1782306,13.116353 C38.4808292,12.2873445 38.8211168,11.5170414 39.18043,10.8078213 C38.8640604,10.561295 38.5790379,10.33324 38.3235504,10.1225588 C38.0104424,10.5080761 37.6879121,10.9347421 37.3715426,11.3979846 M38.2124768,9.3228116 C38.3275368,9.17668811 38.4458583,9.03166192 38.5663541,8.88700149 C37.7959054,8.44607066 37.3124724,8.23721831 37.2019424,8.3264652 C37.1189542,8.39340037 37.5217547,8.76922486 38.2124768,9.3228116 M37.5271906,8.01282091 C37.889403,8.21143182 38.2903914,8.44021841 38.7265321,8.69680321 C39.3128849,8.01172362 39.9641061,7.35041881 40.6845445,6.73172573 C39.5989946,6.95776908 38.5408054,7.37327918 37.5271906,8.01282091 M40.0936618,5.22989082 C39.7222084,5.68691535 39.3846388,6.20374261 39.0887444,6.78732216 C39.7091622,6.56402205 40.4346741,6.37071476 41.2643742,6.25403543 C41.8333321,5.80743522 42.442878,5.38863323 43.094824,5.00585918 C41.9882553,4.95209159 40.9702918,5.02122135 40.0936618,5.22989082 M55.2130835,7.96124792 C55.0532679,7.78037666 54.8920028,7.60554055 54.7294693,7.43417921 C54.6303546,7.50897834 54.5323272,7.58450901 54.4348433,7.66040544 C54.6470247,7.77360999 54.8570318,7.88919203 55.0639585,8.00733442 C55.1136065,7.99178937 55.1632544,7.9764272 55.2130835,7.96124792 M64.4443346,8.58469595 C63.9982282,8.73831764 63.5104464,8.92522403 62.9826202,9.1477926 C63.3091368,9.40748641 63.6367406,9.67650726 63.9652504,9.95558666 C64.154601,9.48557744 64.3149601,9.02763849 64.4443346,8.58469595 M68.6203768,15.9000146 C67.777087,14.6686636 66.8363133,13.5821559 66.0131364,12.7237032 C65.7366301,13.1831053 65.4282332,13.6516514 65.0910259,14.1269642 C65.2649749,14.5583852 65.4316759,15.0066313 65.5916726,15.4698739 C66.7458961,15.5708253 67.7912204,15.710365 68.6203768,15.9000146 M66.8288843,17.6847695 C68.4417168,18.4318464 69.7822106,19.285727 70.724615,20.2497031 C70.3761736,18.9398953 69.7570242,17.6752596 69.0268012,16.5177933 C68.9863943,16.7290231 68.8832934,16.9115403 68.8832934,16.9115403 C68.5426434,17.5353541 67.8847179,17.1763548 67.8847179,17.1763548 C67.6846767,17.0743061 67.385702,16.7473114 65.9040559,16.4263518 C65.9453688,16.560405 65.986138,16.6951897 66.0263637,16.8316204 C66.3066751,17.119844 66.5737592,17.4040441 66.8288843,17.6847695 M63.3511745,16.3530157 C63.9447751,16.5422996 64.5200749,16.741642 65.0739934,16.951043 C64.805641,16.6867771 64.5249672,16.4188536 64.2334216,16.1472724 C64.0304812,16.1207543 63.816669,16.0949678 63.5890858,16.0699129 C63.5106276,16.1642805 63.4314446,16.2584652 63.3511745,16.3530157 M62.6499429,16.1370309 C62.6921618,16.0878354 62.7343806,16.038457 62.7762371,15.9892615 C62.4977376,15.9642065 62.2027493,15.9402489 61.8916344,15.9175714 C62.1473031,15.9890786 62.3997102,16.0622318 62.6499429,16.1370309 M57.5073971,21.3321874 C58.7277574,20.235804 59.8930339,19.1145485 60.9640881,17.9936588 C60.7990178,17.5459613 60.6250689,17.1017386 60.4433285,16.6611735 C59.3969171,18.0927814 58.2307347,19.5423118 56.9973282,20.9644097 C57.1681967,21.0874899 57.3379781,21.2098386 57.5073971,21.3321874 M53.72274,24.5198375 C54.8372814,23.6381587 55.9402262,22.7184402 57.0067504,21.7776903 C56.860887,21.670338 56.7146612,21.5628028 56.568073,21.4550847 C55.6456002,22.5008095 54.6901496,23.5284289 53.72274,24.5198375 M48.871015,28.0723391 C49.1181674,27.8810435 49.3658634,27.6831641 49.6133782,27.4776037 C47.1222849,27.6050731 44.6072736,27.483273 42.2950215,27.1798702 C43.3696996,28.2592455 44.4749999,29.2451675 45.6140029,30.1268463 C46.65371,29.5193091 47.7486821,28.8285601 48.871015,28.0723391 M43.6556281,31.2051243 C43.8792249,31.0902738 44.1068081,30.9701197 44.3380152,30.8450277 C43.8442539,31.0542458 43.3809338,31.230545 42.9467863,31.3768514 C42.9794017,31.404101 43.0121983,31.4311676 43.0449949,31.4582343 C43.2444926,31.3795946 43.4479766,31.2954685 43.6556281,31.2051243 M41.250422,32.046203 C41.6300293,31.9503724 42.039534,31.826012 42.4740439,31.6720245 C42.4323686,31.6361794 42.3905122,31.6005173 42.3490181,31.5648551 C41.9550963,31.6797056 41.5872668,31.7684038 41.2437177,31.8338759 C41.2453485,31.9057489 41.2477041,31.9763418 41.250422,32.046203 M39.181336,28.731815 C39.6084168,29.7440723 40.0905814,30.6614132 40.6175017,31.4904217 C40.6584521,31.4843866 40.6994026,31.4783514 40.7403531,31.4717677 C40.7499565,31.0672305 40.7774984,30.6412961 40.8260592,30.1910382 C40.2610876,29.655374 39.7350734,29.1262936 39.2472916,28.6050772 C39.224642,28.6476889 39.2028984,28.689752 39.181336,28.731815 M38.4522002,26.7367448 C38.7104056,27.0622765 38.9696982,27.3777496 39.2297155,27.6826155 C39.4143551,27.4000613 39.6250869,27.0995846 39.8642667,26.780088 C39.3471311,26.6767592 38.846122,26.5648348 38.3655881,26.444132 C38.3943984,26.5416086 38.4215779,26.6387195 38.4522002,26.7367448 M36.9460925,19.3490045 C36.7290188,19.4521505 36.5202801,19.5554793 36.3187893,19.659174 C36.5046972,19.9907408 36.7083623,20.3288914 36.9319592,20.6738087 C36.9223557,20.2230022 36.9283352,19.7822542 36.9460925,19.3490045 M37.5706778,19.0635242 C37.5074401,19.8652831 37.4895017,20.6924627 37.5288214,21.5441487 C37.5757513,21.609255 37.6214129,21.6738127 37.6697925,21.7392848 C37.8386679,21.9682543 38.0088116,22.1941148 38.179499,22.4183293 C38.9220434,20.9042412 39.8870975,19.3566855 41.0576287,17.8521074 C41.0371534,17.8294299 41.0161346,17.8067524 40.9956594,17.7840749 C39.7354358,18.1834913 38.5830242,18.6167411 37.5706778,19.0635242 M38.4480326,14.5331473 C38.0633519,15.7727281 37.7692695,17.1121629 37.6188762,18.5377356 C38.5467849,18.144903 39.5700031,17.7676155 40.6685992,17.418309 C39.8178803,16.4523212 39.0682692,15.4845045 38.4480326,14.5331473 M39.7555486,11.2496665 C39.3545601,12.0704453 38.9773084,12.9618169 38.6498858,13.9168317 C38.6714483,13.9513966 38.6921047,13.9857786 38.7138483,14.0203435 C39.8796684,13.7734515 41.2781451,13.6105027 42.9592889,13.5693541 C42.9620068,13.5693541 42.9650872,13.5693541 42.9678051,13.5693541 C41.6715233,12.6675582 40.6149649,11.9014614 39.7555486,11.2496665 M40.0282497,10.7092474 C41.2424494,11.6084829 42.678615,12.6361023 43.9872182,13.5607586 C44.3604836,13.5611243 44.7431712,13.5658793 45.1329254,13.5739262 C45.2075785,13.5095513 45.2836811,13.4459081 45.3592402,13.3822648 C43.4570364,12.0519741 41.7545115,10.8924961 40.4011527,10.0184984 C40.2759457,10.2421643 40.1512824,10.4724139 40.0282497,10.7092474 M38.6828637,9.69314961 C38.9204126,9.87749564 39.1798864,10.0750092 39.4558491,10.2822156 C39.574533,10.0633047 39.6946665,9.85079473 39.8155247,9.64450274 C39.566198,9.48704051 39.3308233,9.34128278 39.1126624,9.20924128 C38.9744093,9.35975396 38.8307202,9.52123962 38.6828637,9.69314961 M41.487971,6.59858694 C41.0007329,6.98520153 40.5426674,7.39156748 40.1148618,7.81384425 C40.4408348,7.54884683 40.7832967,7.28586112 41.1494954,7.02635019 C41.1494954,7.02635019 41.4433966,6.83560326 41.8646791,6.55963286 C41.7387473,6.57060584 41.613178,6.58304188 41.487971,6.59858694 M42.8654289,5.61705406 C42.5858423,5.79463342 42.3149531,5.97934521 42.0520366,6.16990926 C42.1544128,6.16241106 42.2582385,6.15619304 42.3631515,6.1512552 C42.5474286,5.94715781 42.7157604,5.76957845 42.8654289,5.61705406 M53.1885719,7.9206479 C50.3805654,6.48977157 47.2357141,5.48391526 44.4650341,5.1291223 C44.112244,5.35864042 43.6920486,5.63973154 43.2579012,5.93417312 C43.2017301,5.99873081 43.1441096,6.06566597 43.0839522,6.13680745 C45.4639719,6.15619304 48.4685769,6.82719064 52.0863519,8.83945192 C52.4540001,8.51849232 52.8218296,8.21198046 53.1885719,7.9206479 M54.0135608,8.35883549 C53.924412,8.30945709 53.8347196,8.26062733 53.744846,8.21216335 C53.5658236,8.35993278 53.3902439,8.5089824 53.2164762,8.65912932 C53.4795739,8.55525179 53.7452084,8.45503193 54.0135608,8.35883549 M62.0474636,9.56129099 C61.2222935,9.94369927 60.307431,10.4127941 59.3054128,10.9779024 C60.3632396,11.7952064 61.3436953,12.585078 62.2496792,13.3497116 C62.6196831,12.7269951 62.9577963,12.1145201 63.2576769,11.5163099 C62.9025312,10.8753051 62.5011804,10.2180237 62.0474636,9.56129099 M63.7030586,10.5740969 C63.4559062,10.3694508 63.2105658,10.1708399 62.9664937,9.97698397 C63.161099,10.2811183 63.3529864,10.5986032 63.5419747,10.9274267 C63.5974209,10.8089186 63.6508739,10.691142 63.7030586,10.5740969 M64.7799111,13.3886657 C65.0488071,12.9954673 65.2970467,12.6072068 65.5235427,12.2251643 C64.8360821,11.5419135 64.2799892,11.0558106 64.0118179,10.8288528 C63.9340845,10.9952763 63.8534519,11.16298 63.7693766,11.3319639 C64.1207172,11.9715056 64.4591928,12.6562194 64.7799111,13.3886657 M64.4189671,13.9020182 C64.1540574,13.27729 63.8404058,12.6062924 63.4720327,11.91152 C63.1833862,12.4565112 62.8648423,13.013207 62.5193,13.5786811 C62.9697552,13.9625525 63.4015472,14.3403887 63.8137698,14.711824 C64.0239581,14.4402428 64.2258113,14.1701246 64.4189671,13.9020182 M61.4357433,15.2564494 C62.0670329,15.2716287 62.701584,15.293026 63.3263505,15.3221044 C62.9340595,14.9737124 62.5231052,14.6191023 62.0940312,14.2584571 C61.8825746,14.5889266 61.6635077,14.9215907 61.4357433,15.2564494 M56.7653963,20.7979862 C58.0379413,19.3188288 59.2363768,17.8082155 60.3007267,16.3175364 C60.2496292,16.1968337 60.1970821,16.0768624 60.1447162,15.9568912 C59.91061,15.89782 59.6750542,15.840029 59.4378676,15.7835182 C57.7360675,15.7169488 55.679484,15.6836641 53.1898402,15.7003064 C52.8285339,15.7120109 52.4684959,15.7288361 52.109545,15.7495019 C51.7143549,16.0454066 51.31391,16.3484436 50.9029557,16.6664771 C52.45853,17.7423776 54.027513,18.8436988 55.5564514,19.9329498 C55.6419763,19.627901 55.7046704,19.3144396 55.7294943,19.0039043 C55.7294943,19.0039043 55.8144756,18.8544889 55.8858671,19.0112196 C55.9213817,19.3468099 55.9273612,19.7347046 55.8786193,20.1628337 C56.1761444,20.3753437 56.4716763,20.5871221 56.7653963,20.7979862 M54.7869087,23.0106872 C55.3129229,22.4442987 55.8316893,21.868766 56.3404899,21.2877468 C56.1455221,21.1445494 55.950192,21.0011692 55.7543183,20.8576061 C55.610448,21.4492324 55.3558666,22.0970039 54.9322285,22.7806204 C54.8849361,22.8572484 54.836013,22.9340593 54.7869087,23.0106872 M51.4498076,25.8119056 C52.449289,24.8226916 53.4275704,23.7098488 54.3500432,22.46405 C54.3500432,22.46405 54.9360336,21.6279091 55.3473503,20.5591411 C53.7205656,19.3674756 52.0711313,18.1679463 50.4635535,17.0102971 C50.2801824,17.1536773 50.0988044,17.2941315 49.9125341,17.4419009 C48.1362621,18.8500997 46.6200074,20.1531409 45.3278932,21.3539504 C47.2424183,22.9998971 49.3363283,24.5304447 51.4498076,25.8119056 M41.9898861,26.545815 C44.119673,26.8291007 46.7588041,27.0397818 50.0219769,27.1314062 C50.412456,26.7945358 50.8022103,26.4402915 51.1892466,26.0670273 C49.0384408,24.745515 46.9389137,23.2347188 45.0303681,21.6328469 C44.2247672,22.392177 43.5103083,23.1096269 42.8782939,23.7853795 C42.5133636,24.7751421 42.2207308,25.6937632 41.9898861,26.545815 M40.3274056,26.8693349 C40.0302429,27.2899657 39.7731247,27.686456 39.5536954,28.0578913 C40.0057813,28.5723411 40.4596793,29.0557008 40.9132148,29.5114451 C41.0226577,28.7574187 41.1851912,27.9432237 41.4058889,27.0657512 C41.4009966,27.0606305 41.3962854,27.0553269 41.3913931,27.0502062 C41.0304491,26.994244 40.6754846,26.9338926 40.3274056,26.8693349 M38.2001554,25.8547002 C38.8089766,26.0041156 39.4900953,26.1467643 40.2507594,26.2793545 C40.3178022,26.1948625 40.386657,26.1090904 40.4575049,26.0220381 C39.9938224,25.4962496 39.5134697,24.9278494 39.0336606,24.3257986 C38.7586039,24.7052808 38.4480326,25.1478576 38.1414477,25.6323145 C38.1602921,25.7061993 38.1805862,25.7806326 38.2001554,25.8547002 M37.9502851,22.8998601 C37.8283396,22.7310592 37.7073002,22.5607951 37.5875291,22.3885194 C37.6183326,22.7356312 37.6585583,23.0864008 37.708931,23.4406451 C37.7857584,23.261054 37.8667534,23.0807314 37.9502851,22.8998601 M41.0623398,25.8868876 C41.2312152,26.0717823 41.4011777,26.2539337 41.5716839,26.4340735 C41.7300499,25.8557975 41.9112467,25.2524666 42.1194418,24.6211546 C41.7307747,25.0624512 41.3794341,25.4841793 41.0623398,25.8868876 M41.8567065,18.6988555 C40.9632251,19.8254146 40.1713952,20.9697133 39.4933569,22.0970039 C39.5363005,22.0995643 39.5632988,22.1024904 39.5632988,22.1024904 C39.5632988,22.1024904 40.452975,22.1591841 39.8970633,23.1259035 C39.8097264,23.2775135 39.6089604,23.5450712 39.3465875,23.8994984 C39.8263965,24.4871014 40.3127287,25.0545872 40.8052215,25.6032361 C41.2571263,25.069035 41.7786106,24.4889302 42.3790968,23.8570696 C42.6581398,23.059517 42.9752342,22.2226445 43.3347286,21.3422459 C43.4548621,21.048353 43.5773511,20.7597637 43.7016521,20.4751978 C43.0556855,19.8901552 42.4390729,19.2965171 41.8567065,18.6988555 M42.1484333,18.3361986 C42.6994527,18.9172178 43.2805507,19.4945793 43.8873788,20.0627967 C44.4509007,18.813706 45.0541048,17.6553253 45.6881124,16.5812537 C44.8134755,16.7566384 43.9645686,16.9528718 43.1475523,17.1653818 C42.8023724,17.5519964 42.4693328,17.9426345 42.1484333,18.3361986 M43.3867321,13.8597722 C43.2261917,13.8605038 43.0671009,13.8621497 42.9103657,13.8647101 C42.9103657,13.8647101 41.0163158,13.8961659 38.9209562,14.33984 C39.5538766,15.3003414 40.3118227,16.2824229 41.1690647,17.2626756 C41.3267059,17.2147602 41.486159,17.1675764 41.6465182,17.1209413 C42.4195037,16.1907985 43.2700413,15.2822359 44.1961381,14.4146391 C43.918001,14.2249895 43.6465682,14.0389975 43.3867321,13.8597722 M44.7915507,13.8733056 C44.6668873,13.8703794 44.5420427,13.8674533 44.4191913,13.8654416 C44.4904016,13.9157344 44.5612496,13.9656615 44.6313727,14.014857 C44.6842822,13.9673074 44.7382788,13.9204894 44.7915507,13.8733056 M55.9974844,12.2299192 C54.9180951,11.4016423 53.7714819,10.5949455 52.5817439,9.86103617 C52.090157,10.101893 51.606724,10.3581121 51.1318072,10.6282302 C50.1317822,11.6585928 49.2399316,12.7066951 48.4535376,13.7251704 C49.9937102,13.8312425 51.5971206,13.9896191 53.2114027,14.2012147 C54.1858789,13.4673054 55.1146936,12.813133 55.9974844,12.2299192 M52.6582089,15.3405756 C52.8848861,15.3325288 53.1115632,15.3255792 53.338784,15.32119 C53.338784,15.32119 54.8202489,15.2601071 56.9125281,15.2350521 C55.8142944,15.0188845 54.701565,14.8277718 53.5911911,14.661714 C53.2856933,14.8806249 52.9742161,15.1075827 52.6582089,15.3405756 M51.685907,15.3862963 C52.0504749,15.0944151 52.4092445,14.8131411 52.7622158,14.5422915 C51.2140706,14.3277697 49.6798774,14.1626264 48.2065664,14.0485075 C48.0766483,14.2204174 47.9505354,14.3910472 47.8265968,14.5605798 C48.3245255,14.8978159 48.8280714,15.2407215 49.3348788,15.5876505 C50.1109446,15.5002324 50.895889,15.4327486 51.685907,15.3862963 M50.47968,16.3742301 C50.7072632,16.183849 50.932672,15.9973083 51.1559064,15.814974 C50.7166854,15.8499047 50.27982,15.8910533 49.8463973,15.9382371 C50.0571291,16.0830805 50.2682234,16.2282895 50.47968,16.3742301 M49.6994467,17.0353521 C49.8222981,16.9298286 49.9436999,16.8270484 50.0651018,16.7237195 C49.7391288,16.4892635 49.4151489,16.2570022 49.0935246,16.0269354 C48.6521293,16.082166 48.2143579,16.1434318 47.7811164,16.2101841 C47.822248,16.238531 47.8447164,16.254076 47.8447164,16.254076 C48.2672673,16.5329725 49.2248923,17.1445332 49.4251148,17.2723684 C49.5166191,17.1933629 49.6066739,17.1152719 49.6994467,17.0353521 M47.2830064,15.8659984 C47.7191471,15.7968686 48.1596364,15.733774 48.6033874,15.6765316 C48.251322,15.4252504 47.9028806,15.1770782 47.5584255,14.9325637 C47.3757792,15.1887827 47.1994747,15.4422585 47.0307805,15.6911623 C47.1215601,15.7538911 47.2058166,15.8124137 47.2830064,15.8659984 M46.3110669,14.0501534 C46.0677196,14.2602859 45.8274527,14.4727959 45.5915345,14.6884149 C45.912434,14.9129952 46.2112275,15.1212989 46.4788551,15.3076567 C46.6504485,15.0448539 46.8234914,14.7875375 46.9985275,14.5357077 C46.7673204,14.3722103 46.5377441,14.2099931 46.3110669,14.0501534 M46.9400009,13.9623696 C47.0438267,14.032048 47.1474712,14.1019093 47.2518406,14.1721363 C47.2960526,14.1105048 47.3408082,14.0510678 47.3852014,13.9899849 C47.2360765,13.9802921 47.0876763,13.9709651 46.9400009,13.9623696 M47.6174957,13.6728658 C48.0561731,13.0832512 48.5037291,12.5260068 48.9570835,11.9971092 C48.2138143,12.5122905 47.4959126,13.0589277 46.8064589,13.630437 C47.0740865,13.6426901 47.3447945,13.6571379 47.6174957,13.6728658 M43.6791837,16.5818023 C44.4273452,16.4020283 45.1970691,16.2370679 45.9838255,16.0896642 C46.0523179,15.9781056 46.1208103,15.8669128 46.1898462,15.7570001 C45.8392305,15.5238243 45.5011173,15.2974152 45.1740571,15.0772241 C44.6558343,15.5675334 44.1569996,16.0700958 43.6791837,16.5818023 M45.1013972,21.1586314 C46.2204685,20.1021165 47.5113144,18.9347745 48.9991211,17.6414262 C48.5999446,17.3623468 47.6222068,16.7034195 47.6222068,16.7034195 C47.4285074,16.5763158 47.2398816,16.4519554 47.0523429,16.3283265 C46.8845547,16.3568563 46.7173101,16.3861175 46.5511526,16.4161103 C45.4681395,18.091867 44.7194344,19.5240235 44.2829313,20.4289284 C44.5512838,20.6743573 44.8245285,20.9175917 45.1013972,21.1586314 M43.8163496,21.4570964 C43.5755391,22.0092201 43.355385,22.5423239 43.1538942,23.0573224 C43.6547221,22.5503708 44.2042919,22.0117805 44.8036909,21.4410027 C44.5643299,21.2376369 44.3273245,21.0331737 44.0944867,20.8272475 C43.907854,21.2306873 43.8163496,21.4570964 43.8163496,21.4570964 M56.5405311,12.6527447 C55.7612037,13.1551242 54.9396575,13.7094424 54.0751677,14.31954 C55.771532,14.5614942 57.4691646,14.8630682 59.1089955,15.2253593 C59.2593888,15.225908 59.4114129,15.2268224 59.5641618,15.2277368 C58.65093,14.3939734 57.6342349,13.5166838 56.5405311,12.6527447 M57.975066,11.7558866 C57.7023649,11.920847 57.4238654,12.0925741 57.1393865,12.2714337 C57.8255787,12.8184366 58.5286222,13.4113432 59.2481546,14.0514336 C58.8473473,13.2599161 58.4222597,12.4916248 57.975066,11.7558866 M61.0434523,15.2476711 C61.3172406,14.841488 61.5797947,14.4378653 61.8298463,14.0377174 C60.8965017,13.2608305 59.878357,12.4544995 58.7739626,11.6167126 C59.4221035,12.6849321 60.0622717,13.8886677 60.6680125,15.2407215 C60.7928571,15.2427332 60.9178829,15.2452936 61.0434523,15.2476711 M40.5305272,9.79062623 C42.04044,10.7284501 43.7944248,11.8643362 45.6774218,13.1174503 C47.384839,11.7171154 49.3020821,10.4640013 51.4066827,9.45064679 C51.4699204,9.39212425 51.5329769,9.3336017 51.5962146,9.27599356 C48.7490696,7.65400453 45.7009773,6.51281482 42.7672203,6.52023992 C42.1201666,7.320426 41.3151093,8.42540489 40.5305272,9.79062623 M43.9689173,5.15984664 C44.0069686,5.13406014 44.0437516,5.10863941 44.0801721,5.08376733 C44.0696627,5.08267003 44.0587909,5.08120696 44.0484627,5.08029255 C44.0276251,5.10059256 44.0008079,5.12747635 43.9689173,5.15984664 M39.2819002,9.02672408 C39.4951688,9.15474216 39.7169537,9.28970978 39.9436309,9.42851796 C40.4884896,8.52288151 41.0442201,7.74727485 41.5515711,7.10956194 C41.0663261,7.44935849 40.6820077,7.72404871 40.5200178,7.84786048 C40.3658193,7.96581999 39.8919898,8.3791355 39.2819002,9.02672408 M41.2723468,30.6061826 C41.2545896,30.8744719 41.2440801,31.1325197 41.241181,31.3792289 C41.4805419,31.3293018 41.7160978,31.2726081 41.9442245,31.2120738 C41.7142858,31.0090737 41.490689,30.807171 41.2723468,30.6061826 M44.595677,30.7045736 C44.7395472,30.6255682 44.8843234,30.5450997 45.0305492,30.4624366 C44.7226959,30.2270662 44.4137554,29.9832832 44.1037277,29.7283443 C44.1037277,29.7283443 43.1167489,28.8618448 41.7632089,27.4441361 C41.5512087,28.3517842 41.4125931,29.1764035 41.3317794,29.924212 C41.7385662,30.3175933 42.1446281,30.6886628 42.5485158,31.0381521 C43.581881,30.7186556 44.3398271,30.3752014 44.3398271,30.3752014 C44.7901011,30.235113 44.6532976,30.5849681 44.595677,30.7045736 M65.0080378,15.4225072 C64.9212446,15.1754323 64.8246667,14.913361 64.7183042,14.6395852 C64.5872989,14.8155186 64.4532133,14.9920007 64.3149601,15.1693972 C64.3952303,15.2432819 64.4747757,15.3169837 64.5534151,15.3905027 C64.7063452,15.4005612 64.8578257,15.4111684 65.0080378,15.4225072 M54.8914592,8.86688437 C54.3431577,9.06988446 53.8033725,9.29336744 53.2722848,9.53459008 C54.3301116,10.1860192 55.4370427,10.9502871 56.5921722,11.842756 C56.9453247,11.6168955 57.2905046,11.4023738 57.627893,11.1991908 C57.4423475,10.9078583 57.2535404,10.6220122 57.0614718,10.3427499 C56.8478408,10.1865679 56.6320355,10.0296543 56.4126062,9.87127762 C55.928992,9.5225198 55.419829,9.18711244 54.8914592,8.86688437 M34.7646645,20.960752 C34.9458613,21.4282009 35.0790409,21.6942956 35.0790409,21.6942956 C35.7387784,22.8636493 36.4197159,23.9410129 37.1133371,24.9364449 C37.1406979,24.8788367 37.1680586,24.8217772 37.1952381,24.7656322 C37.2380005,24.6420033 37.2823937,24.5178257 37.3284177,24.3930996 C37.1367115,23.379745 37.019296,22.4015041 36.964937,21.4591081 C36.6226563,20.9267358 36.2975892,20.3817446 35.9966214,19.8290722 C35.5483406,20.0706606 35.1444529,20.3127977 34.790032,20.5521915 C34.7813346,20.6948402 34.7728183,20.8316367 34.7646645,20.960752 M34.9420561,17.905875 C34.8994749,18.6909916 34.8614236,19.3605261 34.8271774,19.9375218 C35.120535,19.7595767 35.4359986,19.5819974 35.7721186,19.4055153 C35.4697012,18.819924 35.1971812,18.2268346 34.9641621,17.630819 C34.9565519,17.7224434 34.9471296,17.8135191 34.9420561,17.905875 M61.669306,17.241644 C61.5768956,17.1492881 61.4824921,17.0551034 61.385733,16.9596385 C61.439186,17.0971665 61.4924579,17.2356089 61.5451862,17.3758801 C61.586499,17.3310738 61.6281743,17.2864504 61.669306,17.241644 M62.2937101,16.5465059 C62.1038158,16.4898122 61.9126532,16.4340329 61.7194975,16.3788022 C61.8466976,16.5051743 61.9744413,16.6331924 62.1027287,16.7623078 C62.1666911,16.6904348 62.2306536,16.6183789 62.2937101,16.5465059 M64.9234189,8.42705083 C64.7634222,9.0007547 64.5472544,9.60225677 64.2810763,10.2257048 C64.2926729,10.2357634 64.3042695,10.2450904 64.3156849,10.255149 C64.86453,10.7322906 65.3720622,11.200471 65.844261,11.6606046 C66.4043402,10.628596 66.7892022,9.64870905 66.957534,8.74673026 C66.5766583,8.51812655 66.1917964,8.33067151 65.8118267,8.17595252 C65.538582,8.24398498 65.2434124,8.3264652 64.9234189,8.42705083 M59.7515192,7.66150274 C58.6311795,7.80378568 57.5342142,8.03641282 56.4647908,8.34731386 C56.7637655,8.70997078 57.0681761,9.10079168 57.3753047,9.51959367 C57.8447855,9.86707131 58.301945,10.2101598 58.7455147,10.5484932 C59.8196492,9.94625963 60.8040913,9.46070536 61.6966667,9.06951869 C61.6633265,9.02361507 61.6303486,8.97771144 61.5962837,8.9319907 C60.971336,8.47551482 60.3559917,8.05122634 59.7515192,7.66150274 M48.8307893,3.48902786 C48.6550284,3.47019091 48.4816231,3.45446298 48.3098486,3.44074676 C47.5544392,3.59436845 46.8367188,3.79169917 46.1561436,4.02834973 C45.8684032,4.23189847 45.6221567,4.42136522 45.213558,4.66149056 C48.0297183,5.0228673 51.1392363,5.99196414 53.891253,7.3783999 C54.0434583,7.26428093 54.1954824,7.15162503 54.3469629,7.04207813 C53.3795533,6.07883355 52.3693812,5.28548724 51.3361972,4.71434373 C51.3361972,4.71434373 50.3026508,4.09583354 48.8307893,3.48902786 M40.6327222,4.6298518 C40.6026435,4.66002749 40.5727461,4.69056895 40.5430298,4.72147617 C41.554289,4.51628148 42.7090561,4.46141659 43.9462677,4.5396905 C44.5561761,4.22915522 45.2014178,3.95153888 45.8814493,3.71013337 C46.0189777,3.60973062 46.1695522,3.50420715 46.336978,3.3930143 C43.8377308,3.47128821 41.9029116,4.07535065 40.6327222,4.6298518 M34.2507904,22.3332887 C34.2714469,21.9847138 34.2944588,21.6050487 34.318558,21.2180684 C34.2931905,21.1547909 34.2701785,21.0926107 34.2458981,21.0298818 C34.2368383,21.4378937 34.2370195,21.8751669 34.2507904,22.3332887 M51.7243207,36.2018527 C52.3630393,35.8501687 52.9749409,35.4564217 53.5522338,35.0442035 C51.2628125,34.2803014 48.5497531,33.0253584 45.7056885,30.9653647 C45.440054,31.1041729 45.1697084,31.2413351 44.8926585,31.3763027 C44.6002069,31.5185857 44.3150032,31.6500785 44.0355977,31.7731588 C43.9129275,31.8375336 43.7911633,31.9006282 43.6706674,31.961894 C43.9469925,32.177513 44.2216868,32.3834392 44.4942068,32.5800384 C44.8216294,32.5059708 45.1581118,32.4192843 45.506372,32.316687 C45.7785296,32.2482887 45.8125946,32.4785384 45.639008,32.5665051 C45.5618182,32.6039961 45.3153906,32.6808069 45.3153906,32.6808069 C45.1495955,32.7298196 44.987062,32.7738944 44.8257969,32.8165061 C47.4997178,34.6868502 49.9494982,35.6782588 51.7243207,36.2018527 M50.5577758,36.7788485 C50.7487572,36.6950881 50.9379267,36.6071213 51.1252841,36.5145826 C50.6447503,36.3702879 50.1854164,36.2159347 49.7498194,36.056095 C49.8108827,36.1071193 49.8724896,36.1650932 49.9350025,36.2384293 C50.0562231,36.3812609 50.2718473,36.5698132 50.5577758,36.7788485 M67.6355723,12.058375 C67.7721947,11.7606415 68.1133882,10.9982025 68.3395218,10.2059534 C68.0853027,9.84329652 67.8068033,9.48448014 67.5032987,9.1316989 C67.3365976,10.062939 66.933616,11.0808656 66.3407401,12.1554859 C69.1578065,15.0230908 70.5310969,17.5379144 71.1096582,19.6150992 C71.0630906,17.9270894 70.885699,14.7026798 69.1608868,11.5329522 C69.0833346,11.9076794 69.0034268,12.2015724 68.9552285,12.342758 C68.7196727,13.0282034 67.9361778,12.9228628 67.9361778,12.9228628 C67.9361778,12.9228628 67.3050694,12.7778366 67.6355723,12.058375 M37.1651594,10.7840465 C37.3907494,10.4389463 37.6293856,10.0943948 37.8834235,9.75258657 C37.4494572,9.3796882 37.1191354,9.06933581 36.8734326,8.81238524 C36.8549505,9.42705489 36.9566019,10.0881768 37.1651594,10.7840465 M47.7608223,37.587374 C48.1069082,37.5425677 48.4506385,37.4767298 48.7911072,37.3915064 C48.7541431,37.3684631 48.7171789,37.3474316 48.680396,37.3238397 C48.680396,37.3238397 47.969561,37.131081 48.5618933,36.1179094 C48.5618933,36.1179094 48.8074149,35.8494372 49.1614734,35.8318805 C46.542274,34.7947511 44.918932,33.6376506 44.918932,33.6376506 C44.6333659,33.4220316 44.356316,33.207327 44.0841585,32.9933539 C43.3057371,33.1592288 42.5849363,33.2466468 41.9168638,33.2662153 C43.6585272,35.3359018 45.707138,36.7000259 47.7608223,37.587374 M58.8989884,38.0182463 C59.2624691,37.8203669 59.6495054,37.5782299 60.0488632,37.2885433 C60.0793042,37.2585505 60.1095641,37.2283748 60.1396427,37.1976504 C57.0935437,37.6980182 54.2362516,37.3536496 51.8381123,36.7163025 C51.5626932,36.8567566 51.2921664,36.9829458 51.0261695,37.0981621 C52.3782599,37.9599066 54.6491991,38.9632026 56.6874817,38.7622142 C57.4352808,38.5502529 58.1742013,38.3024464 58.8989884,38.0182463 M59.0856211,31.2504793 C59.1977819,30.710243 59.8627741,30.6839078 60.2657557,30.7638277 C61.2208439,30.8688025 62.0983799,30.8953205 62.9005381,30.8600241 C62.9539911,30.4300663 62.9907741,29.9895012 63.0126989,29.5405235 C61.836007,29.7846723 60.5804945,29.974139 59.2639187,30.096122 C59.2639187,30.096122 58.5541709,30.2486464 58.4561435,29.2279765 C58.4561435,29.2279765 58.2936099,28.4051861 59.4144932,28.3512356 C60.6973664,28.2477238 61.9054054,28.1279355 63.0291878,27.9852868 C63.0137861,27.3881739 62.9759159,26.780088 62.9139466,26.1632238 C62.6300113,25.9505309 62.3408212,25.7343632 62.0463765,25.514355 C59.9508357,26.0478246 57.0114615,26.6721871 53.7290819,27.0919035 C54.6912368,27.5873334 55.6450566,28.0207661 56.5751397,28.3788509 C56.6969039,28.4439573 56.7329621,28.5761816 56.6517859,28.7471772 C56.5715157,28.9170755 56.4026403,28.8351439 56.4026403,28.8351439 C55.3049503,28.3473951 54.1913148,27.7877732 53.0802162,27.1718233 C52.4025402,27.2515603 51.7125429,27.3219703 51.0134857,27.3806757 C50.9884806,27.3985982 50.9632942,27.4167036 50.9382891,27.4346262 C49.6427321,28.5657573 48.1107133,29.6498875 46.3036378,30.6451366 C48.7889329,32.455678 51.4327751,33.7768246 54.2643372,34.5138429 C56.612285,32.6943403 58.2425125,30.7376754 58.4583178,30.6160583 C58.832308,30.4064744 58.8431798,30.9125115 58.8431798,30.9125115 C57.4885527,32.4640906 56.1900965,33.7005624 54.9570524,34.6802664 C56.537632,35.0345107 58.1756508,35.2100784 59.876545,35.1881324 C59.876545,35.1881324 60.6558724,35.2557991 61.664776,35.0500558 C61.7905266,34.805907 61.9108413,34.5495051 62.0251764,34.2795698 C62.3085682,33.6100353 62.5287223,32.8881962 62.6907122,32.1246598 C61.8919968,32.1769644 61.03856,32.1733067 60.1309453,32.0970445 C60.1309453,32.0970445 58.9281611,32.007249 59.0856211,31.2504793 M66.4021658,6.08505157 C65.9841449,6.4347238 65.4902025,5.68691535 65.4902025,5.68691535 C65.378404,5.54609546 65.2622569,5.41990622 65.144479,5.30030076 C65.2269235,5.67265048 65.2602637,6.07243264 65.2463116,6.4980013 C65.7344557,6.83743209 66.1872665,7.19149351 66.608549,7.55652791 C66.7681833,7.53311889 66.9140467,7.51537925 67.0461392,7.50166302 C67.0280195,7.20027189 66.9776468,6.91131681 66.8937527,6.63589506 C66.733756,6.44880579 66.5692293,6.26573994 66.4021658,6.08505157 M57.6760913,38.8459746 C57.6164776,38.8617026 57.3841833,38.9202251 57.0188906,38.9809422 C56.8523708,39.0279432 56.6851261,39.0727495 56.5175191,39.1164585 C56.6738919,39.1087774 56.8228357,39.1001819 56.9641692,39.0899405 C57.2031677,39.020445 57.4408979,38.9403422 57.6760913,38.8459746 M69.8287781,9.85408662 C73.5130523,13.961638 72.4847605,20.8314538 72.4847605,20.8314538 C72.4927332,21.2711044 72.4046716,21.5774334 72.2515603,21.7720209 C72.2207568,22.0337264 72.1540764,22.2116715 72.0741686,22.3329229 C72.0707259,22.3588923 72.0681892,22.3846788 72.0647464,22.4104653 C72.1981072,22.8652953 72.2535535,23.3382306 72.2169517,23.8305516 C72.1700217,24.4561942 71.8748522,25.0743386 71.3671388,25.6654164 C71.0020273,26.8757358 70.5234866,28.0469183 69.926262,29.1528116 C69.6207642,29.7190173 69.287181,30.2616311 68.9305857,30.783579 C68.9264182,30.8651449 68.8861925,30.919644 68.8155258,30.9503683 C68.2164892,31.8069921 67.5511346,32.6027159 66.8292467,33.3375397 C66.0656834,34.5332285 64.6220887,35.4737956 63.4756567,36.0780409 C62.4589615,36.7430034 61.3835586,37.3220109 60.2655745,37.8157949 C58.0607721,39.6771777 54.5571511,40.6310953 49.0364477,39.5370893 C49.0364477,39.5370893 48.1770313,39.3884055 47.8099267,39.07659 C45.1778622,38.5184312 42.6679244,37.4500289 40.4845032,35.7883543 C39.5009671,35.0399972 38.5991507,34.1952608 37.7832216,33.2748108 C36.9674737,32.6881223 36.4608475,31.9785364 36.1814421,31.2060387 C35.0534922,29.530465 34.1755938,27.6813353 33.5857982,25.7338146 C33.4377605,25.2453342 33.3072988,24.7510015 33.1938696,24.2524626 C32.5955578,23.7605074 32.2690412,23.2409369 32.2838994,22.714051 C32.2838994,22.3673049 32.4507816,21.9927606 32.7629837,21.6026713 C32.5145629,19.1295449 32.6932229,16.6139897 33.3527792,14.2173084 C33.6042803,12.5333221 34.152763,11.5834279 34.152763,11.5834279 C34.152763,11.5834279 34.3459187,11.205226 34.6278609,10.8279384 C34.8451159,10.3026985 35.1353931,9.79300371 35.5070277,9.30306024 C35.7616092,8.89431681 36.0315924,8.49599771 36.3167961,8.10901735 C35.9674487,7.4696585 36.6911487,7.58249729 36.7148854,7.58633784 C36.7337299,7.56238017 36.7534803,7.53933691 36.772506,7.51556213 C36.8984378,7.18490973 37.0638704,6.86779066 37.2764143,6.56731395 C37.5634299,6.16167953 37.9365141,5.82170009 38.3795402,5.54097474 C38.5038412,5.38332962 38.6190824,5.24635028 38.7160227,5.1355232 C39.3433259,3.94989293 41.04875,1.61648917 44.7114617,1.71981804 C48.6265805,0.106241631 53.0501375,-0.465816287 57.141742,0.407998526 C59.6248627,0.938359128 61.9715422,1.9725623 64.0362795,3.41203413 C65.3456074,3.72202076 66.0747433,4.39777332 66.1936084,4.50256526 C66.4039778,4.68837435 66.8959271,4.9948862 66.6768602,5.63241622 C67.2559651,6.21581289 67.7990118,6.83651767 68.2991149,7.49306752 C68.9684558,7.62200001 69.2585519,8.25148318 69.3464323,9.02306642 C69.5138581,9.29537916 69.6753045,9.57208108 69.8287781,9.85408662 M30.1756748,15.1147151 C29.8631104,13.3771441 29.3180705,11.8990839 28.6041552,10.5686104 C26.4961118,6.6397356 22.7949864,3.88789561 17.854475,3.06400785 C16.0620765,2.76444555 15.0486429,2.88880596 13.4776668,2.97823573 C13.3843504,2.85442397 13.5316634,3.0440736 13.4356291,3.02121323 C10.5555063,3.31711787 8.27894998,4.26756065 6.17036305,5.76573791 C3.13694776,7.92046502 0.614507385,11.4945468 0.0941102336,16.3155247 C-0.0894421044,18.0196282 0.0520725807,19.8116984 0.0520725807,21.7615966 L0.0520725807,30.124286 C0.0520725807,31.0469305 -0.0459548772,32.033767 0.0520725807,32.9110566 C0.238886461,34.5924826 1.5927888,35.7932921 3.11067422,36.0848076 C5.08553793,36.4641069 6.64346784,35.5363416 7.40195756,34.2834104 C7.83411188,33.5696182 7.9118453,32.6850132 7.9118453,31.9682949 C7.9118453,29.2254162 7.99664539,26.6337817 7.95424535,23.7347209 C7.92235471,21.5269577 7.96366758,19.4644036 7.95424535,17.6013748 C7.9459103,15.8850182 8.36610563,14.5795996 9.05900211,13.3994558 C9.08147052,13.3612333 9.28767245,13.2606476 9.14452699,13.2279116 C10.1389349,11.8787839 12.0304481,9.94918576 15.3476176,10.0539777 C18.4381098,10.152003 20.3752846,11.7407073 21.5508893,14.0421065 C22.1644216,15.2427332 22.4431023,16.5843627 22.4431023,18.2451229 L22.4431023,28.4518212 C22.4431023,30.1475121 22.23382,32.0957643 22.6134272,33.4262379 C23.0740294,35.041826 24.3125094,36.0187868 26.1393354,36.1707626 C27.9679733,36.3231041 29.4681014,35.4196622 30.0914183,33.8978931 C30.4911384,32.9202007 30.3882187,31.4106847 30.3882187,30.038331 L30.3882187,21.0331737 C30.3882187,18.884116 30.4889641,16.8522862 30.1756748,15.1147151 M117.98146,8.01519839 C117.879084,9.19223316 117.221158,10.6115879 116.783387,11.8550092 C114.60975,18.0366363 112.426329,24.1800409 110.242546,30.4964528 C109.250131,33.3689955 108.487292,36.4672159 104.385178,36.1056563 C102.145405,35.9085084 101.044816,33.9492832 100.494884,32.2226851 C100.202794,31.3047955 99.9212146,30.2603509 99.5968723,29.2883279 C99.2649198,28.2883239 98.9847896,27.497355 98.784386,26.7422313 C98.3382795,25.6902884 97.7999439,23.8199443 97.1175568,21.7367245 C96.4235731,19.6222316 95.9370598,18.1260661 95.3218967,16.0406516 C94.324952,19.0435899 93.5369272,21.8991245 92.8849812,24.1968661 C92.2665566,26.370796 91.5461182,28.5599051 90.8753277,30.7552322 C90.656442,31.4768884 90.5294231,32.2647482 90.2344347,32.9554972 C89.5478801,34.5575519 88.0133246,35.9578868 86.1727277,36.1489995 C82.1155506,36.5723736 81.3126677,33.4165451 80.315723,30.5822249 C78.5466988,25.5558695 76.9282492,20.6672249 75.1851362,15.6531226 C74.7823357,14.4921815 74.3076002,13.2235224 73.8596817,11.9413299 C73.3449017,10.4643671 72.5668427,9.04336643 72.6197521,7.23794579 C72.6931368,4.75933294 75.8785762,2.78730592 78.434538,4.30395436 C79.7768438,5.10077544 80.3012272,6.85297714 80.8718159,8.66223833 C82.5080228,13.8557488 84.1516588,18.9720827 85.6595784,24.023676 C87.1618809,19.2811549 89.059736,13.3707432 90.6618779,8.23026876 C91.0971126,6.83359155 91.4855985,5.51116482 92.5001192,4.73537527 C92.7592306,4.53694726 93.0565746,4.37655889 93.3118808,4.2176336 C93.6764487,4.1413714 94.0404731,3.86777848 94.6375165,3.82919018 C96.4619868,3.71104778 97.9874825,4.37710754 98.784386,5.38296386 C98.8646561,5.48354949 98.9534426,5.74927844 99.042229,5.90070554 C99.7220793,7.06018354 100.048234,8.77964919 100.53819,10.1293255 C101.056594,11.5559955 101.518827,13.3820819 101.948444,14.4879752 C102.850079,17.3890477 103.924939,20.5820014 104.98349,24.023676 C106.736025,18.8550376 108.457032,13.0980647 110.242546,7.58322883 C110.936348,5.44020623 111.898684,3.62253242 114.732058,3.87198479 C116.724136,4.0479182 118.182588,5.67831985 117.98146,8.01519839"/>
</svg>
