<svg xmlns="http://www.w3.org/2000/svg" width="70" height="70" viewBox="0 0 70 70">
  <g fill="#FFBC4B">
    <path d="M70,47.3730469 C70,37.1698761 63.1250763,28.2553864 53.4303284,25.5690765 C52.8209686,11.3668823 41.0781097,0 26.7285156,0 C11.9901276,0 0,11.9901276 0,26.7285156 C0,31.5318298 1.27853387,36.2085724 3.70635986,40.3144074 L0.0982666016,53.3582306 L13.1426239,49.7506714 C16.9168091,51.9824982 21.1743164,53.2396698 25.5685425,53.4292603 C28.2543182,63.1245423 37.1693421,70 47.3730469,70 C51.4457702,70 55.4063415,68.9153289 58.8862611,66.8544007 L69.9011994,69.9011994 L66.8544007,58.8862611 C68.9153289,55.4063415 70,51.4457702 70,47.3730469 Z M13.7899017,45.3158569 L5.98091129,47.47612 L8.14117432,39.6671296 L7.64877312,38.8970184 C5.32829281,35.2664948 4.1015625,31.0586548 4.1015625,26.7285156 C4.1015625,14.2518616 14.2518616,4.1015625 26.7285156,4.1015625 C39.2051696,4.1015625 49.3554688,14.2518616 49.3554688,26.7285156 C49.3554688,39.2051696 39.2051696,49.3554688 26.7285156,49.3554688 C22.3983765,49.3554688 18.1910706,48.1287384 14.5600129,45.8082581 L13.7899017,45.3158569 Z M64.0190887,64.0190887 L58.2245636,62.4158478 L57.4507142,62.9194642 C54.4509124,64.8682404 50.9656525,65.8984375 47.3730469,65.8984375 C39.3536377,65.8984375 32.3067474,60.7132721 29.810028,53.2781219 C42.0901489,51.8623353 51.8623353,42.0901489 53.2786559,29.809494 C60.7132721,32.3067474 65.8984375,39.3536377 65.8984375,47.3730469 C65.8984375,50.9656525 64.8682404,54.4509124 62.9194642,57.4507142 L62.4158478,58.2245636 L64.0190887,64.0190887 Z"/>
    <polygon points="24.678 37.051 28.779 37.051 28.779 41.152 24.678 41.152"/>
    <path d="M30.8300781,20.5078125 C30.8300781,21.6725921 30.355835,22.7476501 29.4949341,23.5353851 L24.6777344,27.9445648 L24.6777344,32.9492188 L28.7792969,32.9492188 L28.7792969,29.7507477 L32.2640228,26.5613556 C33.9591217,25.0099183 34.9316406,22.8037262 34.9316406,20.5078125 C34.9316406,15.9843444 31.2519837,12.3046875 26.7285156,12.3046875 C22.2050475,12.3046875 18.5253906,15.9843444 18.5253906,20.5078125 L22.6269531,20.5078125 C22.6269531,18.2460785 24.4667816,16.40625 26.7285156,16.40625 C28.9902497,16.40625 30.8300781,18.2460785 30.8300781,20.5078125 Z"/>
  </g>
</svg>
