<svg xmlns="http://www.w3.org/2000/svg" width="70" height="52" viewBox="0 0 70 52">
  <path fill="#FFBC4B" d="M1173.47293,955.548485 C1169.08121,951.695758 1163.34541,949.363636 1157.0626,949.363636 C1150.77978,949.363636 1145.04398,951.695758 1140.64445,955.556364 C1140.39197,955.78586 1140.36437,956.175441 1140.58193,956.438788 L1143.39513,959.818788 C1143.62175,960.086667 1144.02029,960.118182 1144.28598,959.889697 C1147.69308,956.864242 1152.16294,955.036364 1157.0626,955.036364 C1161.96225,955.036364 1166.43212,956.864242 1169.83922,959.881818 C1170.10491,960.110303 1170.50344,960.078788 1170.73006,959.810909 L1173.54326,956.430909 C1173.76207,956.170909 1173.73081,955.77697 1173.47293,955.548485 Z M1182.64709,944.510303 C1175.71568,938.687879 1166.7994,935.181818 1157.0626,935.181818 C1147.3258,935.181818 1138.40951,938.687879 1131.47029,944.510303 C1131.20604,944.735012 1131.17114,945.132601 1131.39214,945.400606 L1134.20534,948.780606 C1134.42415,949.048485 1134.82268,949.08 1135.08056,948.859394 C1141.04298,943.864242 1148.70895,940.854545 1157.0626,940.854545 C1165.41624,940.854545 1173.08221,943.864242 1179.03682,948.859394 C1179.30251,949.08 1179.69323,949.048485 1179.91204,948.780606 L1182.72524,945.400606 C1182.94404,945.132727 1182.91278,944.730909 1182.64709,944.510303 L1182.64709,944.510303 Z M1191.76655,933.558788 C1182.27981,925.711515 1170.13616,921 1156.90631,921 C1143.76241,921 1131.69691,925.648485 1122.23361,933.401212 C1122.10227,933.507607 1122.01907,933.662951 1122.00289,933.832039 C1121.98671,934.001127 1122.03891,934.169642 1122.14765,934.299394 L1124.96085,937.679394 C1125.17966,937.939394 1125.57038,937.978788 1125.82826,937.766061 C1134.32256,930.824848 1145.12994,926.672727 1156.90631,926.672727 C1168.76864,926.672727 1179.64635,930.887879 1188.16409,937.915758 C1188.42978,938.136364 1188.8205,938.09697 1189.03931,937.829091 L1191.85251,934.449091 C1192.07913,934.181212 1192.04006,933.779394 1191.76655,933.558788 Z M1151.98321,967.957576 C1151.98321,970.74243 1154.22234,973 1156.98445,973 C1159.74656,973 1161.9857,970.74243 1161.9857,967.957576 C1161.9857,965.172722 1159.74656,962.915152 1156.98445,962.915152 C1154.22234,962.915152 1151.98321,965.172722 1151.98321,967.957576 Z" transform="translate(-1122 -921)"/>
</svg>
