<svg xmlns="http://www.w3.org/2000/svg" width="74" height="70" viewBox="0 0 74 70">
  <g fill="#FFBC4B">
    <path d="M67.4960938,38.9747461 L61.9674844,38.9747461 L73.6801523,11.5770473 C74.1519023,10.4738426 73.6419961,9.19604357 72.5415352,8.72326226 C71.4410742,8.25048095 70.1664531,8.76151365 69.6948477,9.86471834 L57.2501289,38.9747461 L16.7498711,38.9747461 L4.30515234,9.86471834 C3.83354688,8.76151365 2.55921484,8.25019117 1.45846484,8.72326226 C0.358003906,9.19604357 -0.151757813,10.4736978 0.319847656,11.5770473 L12.0325156,38.9747461 L6.50390625,38.9747461 C2.91765234,38.9747461 0,41.8996729 0,45.4948684 L0,58.5351129 C0,62.1303083 2.91765234,65.0552352 6.50390625,65.0552352 L8.81640625,65.0552352 L8.81640625,67.3735009 C8.81640625,68.573783 9.78707813,69.546875 10.984375,69.546875 C12.1816719,69.546875 13.1523438,68.573783 13.1523438,67.3735009 L13.1523438,65.0552352 L60.8476563,65.0552352 L60.8476563,67.3735009 C60.8476563,68.573783 61.8183281,69.546875 63.015625,69.546875 C64.2129219,69.546875 65.1835938,68.573783 65.1835938,67.3735009 L65.1835938,65.0552352 L67.4960938,65.0552352 C71.0823477,65.0552352 74,62.1303083 74,58.5351129 L74,45.4948684 C74,41.8996729 71.0823477,38.9747461 67.4960938,38.9747461 Z M69.6640625,58.5351129 C69.6640625,59.7335114 68.6915117,60.708487 67.4960938,60.708487 L6.50390625,60.708487 C5.30848828,60.708487 4.3359375,59.7335114 4.3359375,58.5351129 L4.3359375,45.4948684 C4.3359375,44.2964699 5.30848828,43.3214943 6.50390625,43.3214943 L67.4960938,43.3214943 C68.6915117,43.3214943 69.6640625,44.2964699 69.6640625,45.4948684 L69.6640625,58.5351129 Z"/>
    <path d="M32.6076343 27.5874444C31.7974552 28.4932302 31.7974552 29.9616918 32.6076343 30.8674776 33.4176751 31.7732635 34.7312772 31.7732635 35.5414563 30.8674776 35.7692414 30.6128124 36.2617385 30.185587 37 30.185587 37.7382615 30.185587 38.2306203 30.6128124 38.4585437 30.8674776 39.2685845 31.7732635 40.5821866 31.7734181 41.3923657 30.8674776 42.2025448 29.9616918 42.2025448 28.4932302 41.3923657 27.5874444 40.7106701 26.8254586 39.2335938 25.546875 37 25.546875 34.7664062 25.546875 33.2893299 26.8254586 32.6076343 27.5874444L32.6076343 27.5874444zM17.6807951 12.9226561C22.9770839 7.68816275 30.0156145 4.8053304 37.499982 4.8053304 44.9843495 4.8053304 52.0228802 7.68816275 57.319169 12.9226561 58.1602513 13.7541905 59.5253571 13.7553261 60.3680204 12.9237917 61.2102525 12.0926832 61.2106836 10.7444562 60.3691702 9.9126379 54.2585321 3.87301256 46.1367415.546875 37.499982.546875 28.8632226.546875 20.7415757 3.87301256 14.6309376 9.91249595 13.7892804 10.7443142 13.7897116 12.0923993 14.6320874 12.9236498 15.4741758 13.7549003 16.8394254 13.7543325 17.6807951 12.9226561L17.6807951 12.9226561z"/>
    <path d="M53.3641752,18.8944547 C54.2113148,18.0241406 54.2120376,16.6120731 53.3657654,15.7407183 C48.8594458,11.1017687 42.8699091,8.546875 36.5000271,8.546875 C30.130145,8.546875 24.1404638,11.1017687 19.6342887,15.7407183 C18.7880166,16.6120731 18.7885949,18.0239919 19.6358789,18.8944547 C20.483163,19.7649175 21.856223,19.7641741 22.7024951,18.8928193 C26.3892868,15.0972746 31.2893962,13.0069746 36.4998825,13.0069746 C41.7103688,13.0069746 46.6103337,15.0972746 50.2972699,18.8928193 C51.1433975,19.7637281 52.5161683,19.7655122 53.3641752,18.8944547 L53.3641752,18.8944547 Z"/>
    <path d="M48.3572751 24.9235184C49.2142416 24.0924472 49.2142416 22.7451132 48.3572751 21.914042 45.4532731 19.0977917 41.5973623 17.546875 37.4999269 17.546875 33.4024914 17.546875 29.5465806 19.0977917 26.6427249 21.914042 25.7857584 22.7451132 25.7857584 24.0924472 26.6427249 24.9235184 27.4995452 25.7545896 28.8890073 25.7547315 29.7459738 24.9235184 31.8209506 22.9112423 34.5747128 21.8029582 37.4999269 21.8029582 40.4251409 21.8029582 43.1789031 22.9112423 45.2540262 24.9235184 46.1108464 25.7545896 47.5003085 25.7545896 48.3572751 24.9235184zM46 47.546875C44.8954667 47.546875 44 48.554275 44 49.796875L44 54.296875C44 55.539475 44.8954667 56.546875 46 56.546875 47.1045333 56.546875 48 55.539475 48 54.296875L48 49.796875C48 48.554275 47.1045333 47.546875 46 47.546875zM54 47.546875C52.8954667 47.546875 52 48.554275 52 49.796875L52 54.296875C52 55.539475 52.8954667 56.546875 54 56.546875 55.1045333 56.546875 56 55.539475 56 54.296875L56 49.796875C56 48.554275 55.1045333 47.546875 54 47.546875zM63 47.546875C61.8954667 47.546875 61 48.554275 61 49.796875L61 54.296875C61 55.539475 61.8954667 56.546875 63 56.546875 64.1045333 56.546875 65 55.539475 65 54.296875L65 49.796875C65 48.554275 64.1045333 47.546875 63 47.546875z"/>
  </g>
</svg>
