<svg xmlns="http://www.w3.org/2000/svg" width="104" height="18" viewBox="0 0 104 18">
  <g fill="none">
    <path fill="#000" d="M103.113089,10.8966492 C103.113089,11.9812721 102.694859,12.8172393 101.858794,13.4052393 C101.074859,13.9539934 100.049056,14.2283213 98.7819736,14.2283213 C97.8280721,14.2283213 97.0505313,14.1432393 96.4497444,13.9735672 C95.6918752,13.7514689 95.0190887,13.3464197 94.4310884,12.758518 L96.0969245,11.0925836 C96.7369576,11.7329115 97.6452196,12.0529771 98.8211212,12.0529771 C100.02299,12.0529771 100.624072,11.7001574 100.624072,10.9946164 C100.624072,10.4329771 100.264662,10.1195016 99.5462361,10.0539935 L97.9391212,9.89710821 C95.953023,9.70117375 94.960269,8.74756719 94.960269,7.03579671 C94.960269,6.01668199 95.3586294,5.20668199 96.1557442,4.6056 C96.8872524,4.0568459 97.8020067,3.78251803 98.8995145,3.78251803 C100.650138,3.78251803 101.950072,4.18127213 102.799515,4.97799346 L101.231646,6.56543605 C100.722138,6.10825576 99.9314162,5.87946884 98.8603674,5.87946884 C97.8932852,5.87946884 97.4100392,6.20622294 97.4100392,6.85943607 C97.4100392,7.38222295 97.7628591,7.67612458 98.4683018,7.74133768 L100.075416,7.8981246 C102.100465,8.09415739 103.113089,9.0936 103.113089,10.8966492 L103.113089,10.8966492 Z M92.5693181,14.1107803 L90.0803018,14.1107803 L90.0803018,13.170059 C89.4140067,13.8756 88.5645639,14.2283213 87.5325638,14.2283213 C86.5263344,14.2283213 85.7228263,13.9279279 85.1220393,13.3268459 C84.4293837,12.6344853 84.0832527,11.6676984 84.0832527,10.4262885 L84.0832527,3.90005901 L86.6506623,3.90005901 L86.6506623,10.0735672 C86.6506623,10.7138951 86.8313511,11.1974361 87.1930232,11.5237967 C87.4899739,11.7981246 87.8645312,11.9354361 88.3164984,11.9354361 C88.7813507,11.9354361 89.1625969,11.7981246 89.4596457,11.5237967 C89.8209246,11.1974361 90.001908,10.7138951 90.001908,10.0735672 L90.001908,3.90005901 L92.5693181,3.90005901 L92.5693181,14.1107803 Z M82.1430886,14.1107803 L80.6928589,14.1107803 C79.712892,14.1107803 78.9550228,13.8039934 78.4193509,13.1896328 C77.9489901,12.654059 77.7138096,11.9877639 77.7138096,11.1905508 L77.7138096,0.156845902 L80.2812197,0.156845902 L80.2812197,11.0338623 C80.2812197,11.6481246 80.5785641,11.9550098 81.1732524,11.9550098 L82.1430886,11.9550098 L82.1430886,14.1107803 Z M72.8144654,8.99563277 C72.8144654,8.09415739 72.7427605,7.44743605 72.6000395,7.05537047 C72.3400721,6.40225573 71.8400065,6.07540329 71.0995476,6.07540329 C70.3590887,6.07540329 69.8587281,6.40225573 69.5990558,7.05537047 C69.4560392,7.44743605 69.3847279,8.09415739 69.3847279,8.99563277 C69.3847279,9.89710821 69.4560392,10.5438295 69.5990558,10.9357967 C69.8587281,11.6021902 70.3590887,11.9354361 71.0995476,11.9354361 C71.8400065,11.9354361 72.3400721,11.6021902 72.6000395,10.9357967 C72.7427605,10.5438295 72.8144654,9.89710821 72.8144654,8.99563277 L72.8144654,8.99563277 Z M75.381777,8.99563277 C75.381777,10.0411082 75.3358424,10.8249443 75.2445639,11.3474361 C75.1006625,12.1968787 74.800269,12.8499934 74.3430884,13.3072722 C73.7288261,13.9215344 72.8992525,14.2283213 71.8540721,14.2283213 C70.8217768,14.2283213 69.9986951,13.8887803 69.3847279,13.2093049 L69.3847279,17.8539934 L66.8368918,17.8539934 L66.8368918,3.90005901 L69.3063346,3.90005901 L69.3063346,4.86045246 C69.9595475,4.14202623 70.8085966,3.78251803 71.8540721,3.78251803 C72.8992525,3.78251803 73.7288261,4.0896 74.3430884,4.70356722 C74.800269,5.16104261 75.1006625,5.81425574 75.2445639,6.66340328 C75.3358424,7.18609183 75.381777,7.96363281 75.381777,8.99563277 L75.381777,8.99563277 Z"/>
    <path fill="#E3262E" d="M42.2881672.0466229508C41.4007574.0466229508 40.6813475.765934427 40.6813475 1.65344262 40.6813475 2.54085246 41.4007574 3.26036066 42.2881672 3.26036066 43.1756754 3.26036066 43.8950853 2.54085246 43.8950853 1.65344262 43.8950853.765934427 43.1756754.0466229508 42.2881672.0466229508L42.2881672.0466229508zM40.9872492 14.1107213L43.554659 14.1107213 43.554659 4.49016393 40.9872492 4.49016393 40.9872492 14.1107213zM62.8051183.0466229508C61.9176098.0466229508 61.1982.765934427 61.1982 1.65344262 61.1982 2.54085246 61.9176098 3.26036066 62.8051183 3.26036066 63.6925277 3.26036066 64.4119375 2.54085246 64.4119375 1.65344262 64.4119375.765934427 63.6925277.0466229508 62.8051183.0466229508L62.8051183.0466229508zM61.4278719 14.1107213L63.9952821 14.1107213 63.9952821 4.49016393 61.4278719 4.49016393 61.4278719 14.1107213zM59.4878064 6.13436064L57.6260361 6.13436064 57.6260361 14.1107213 55.0586264 14.1107213 55.0586264 6.13436064 54.0002657 6.13436064 54.0002657 4.194 55.0586264 4.194 55.0586264 2.92013115C55.0586264 2.12331148 55.2938064 1.45701639 55.7641672.921147542 56.3129214.307081967 57.0704949 0 58.0374786 0L59.4878064 0 59.4878064 2.15577049 58.4986917 2.15577049C57.9168886 2.15577049 57.6260361 2.46295082 57.6260361 3.07701639L57.6260361 4.194 59.4878064 4.194 59.4878064 6.13436064zM46.1219705 9.70111473L52.1581671 9.70111473 52.1581671 7.3297377 46.1219705 7.3297377 46.1219705 9.70111473zM39.4587246.156786885L35.7155115 14.1107213 33.4421016 14.1107213 30.8746918 5.64432788 28.3073803 14.1107213 26.0339705 14.1107213 22.3103312.156786885 25.1520688.156786885 27.3078394 8.95642622 29.8556754.156786885 31.8938066.156786885 34.4416426 8.95642622 36.6169869.156786885 39.4587246.156786885zM10.5785256 13.1206479C10.5962069 12.5906078 10.1525756 12.1326915 9.61284572 12.123801 9.06202757 12.1148104 8.61559915 12.5341675 8.60301246 13.072299 8.59042573 13.6122287 9.02057135 14.0617538 9.56120026 14.0737411 10.0931384 14.0855287 10.5609442 13.6471917 10.5785256 13.1206479M5.73713981 10.1424939C5.43875499 10.546667 5.46632588 10.9170756 5.78309125 11.1518277 6.09885772 11.3858804 6.44059672 11.2936779 6.75366598 10.8899044 8.27755626 8.92527968 10.8842027 8.92148367 12.4117891 10.881713 12.7372453 11.2993718 13.0463188 11.38628 13.3809653 11.1540254 13.7115161 10.9247675 13.7304961 10.5301844 13.4122323 10.1081302 12.4495492 8.83137889 11.1622091 8.19095537 9.55590589 8.16038768 7.96998117 8.20663882 6.68663683 8.85605282 5.73713981 10.1424939M15.0375154 7.71016325C15.5463779 8.23630746 15.8909139 8.33730077 16.2033839 8.05210205 16.5410272 7.7438277 16.4721 7.34604788 15.9416603 6.82180167 13.5102287 4.41943939 10.6190828 3.59341196 7.30168712 4.41264657 5.58220348 4.83729797 4.14262415 5.77630606 2.96866426 7.10819915 2.70034769 7.41267748 2.65709339 7.75401693 2.96666637 8.0369181 3.26884716 8.3132262 3.60309408 8.26757446 3.89228859 7.971687 4.03164139 7.82893781 4.16559988 7.68079431 4.3081493 7.54144148 5.76700825 6.1159473 7.52255379 5.40589737 9.01347887 5.37193322 11.6452988 5.36404159 13.5583779 6.1806789 15.0375154 7.71016325M9.38039125 1.25478236C6.27746902 1.29474015 3.49191153 2.50326353 1.19224077 4.84399094.814339966 5.22858467.495177111 5.2693416.195393785 4.99493146-.0886062136 4.73520583-.0619343882 4.36599585.268216859 3.99079219.322959032 3.92845804.375903105 3.86412599.434641058 3.80568772 2.32344583 1.9286705 4.55928402.663706734 7.18750772.219176312 11.7093311-.545815592 15.6262934.689679298 18.8757609 3.95792691 19.0576687 4.14093359 19.2198974 4.33043341 19.1773423 4.60674154 19.1395822 4.85138312 19.008221 5.03299127 18.7636793 5.1228963 18.4493114 5.23857411 18.2235499 5.10611405 18.0133719 4.88564692 17.0058362 3.82926282 15.8476596 2.98085903 14.5251567 2.35621886 12.9529175 1.61360332 11.295768 1.25867824 9.38039125 1.25478236"/>
  </g>
</svg>
