<svg xmlns="http://www.w3.org/2000/svg" width="106" height="18" viewBox="0 0 106 18">
  <g fill="none">
    <path fill="#000" d="M103.151404,13.8209442 L101.307073,13.8209442 C100.466109,13.8209442 100.000306,14.2140139 100.000306,14.8749907 C100.000306,15.5179675 100.43002,15.9466186 101.342743,15.9466186 C101.987734,15.9466186 102.399404,15.8926186 102.811073,15.5003861 C103.0616,15.2680605 103.151404,14.8929907 103.151404,14.3211768 L103.151404,13.8209442 Z M105.478743,11.6245256 L105.478743,17.7503861 L103.205118,17.7503861 L103.205118,16.9466651 C102.578591,17.5716418 101.987734,17.8395488 100.913448,17.8395488 C99.8567876,17.8395488 99.0871628,17.5716418 98.5319753,17.0182465 C98.0309216,16.5000139 97.7623498,15.7498744 97.7623498,14.9285721 C97.7623498,13.446293 98.7829217,12.2315023 100.949118,12.2315023 L103.151404,12.2315023 L103.151404,11.7672698 C103.151404,10.7492232 102.64993,10.3029907 101.414502,10.3029907 C100.519823,10.3029907 100.107734,10.5168977 99.6243053,11.0711302 L98.1383501,9.62443254 C99.0510733,8.62438607 99.9465913,8.33806046 101.503886,8.33806046 C104.118261,8.33806046 105.478743,9.44610699 105.478743,11.6245256 L105.478743,11.6245256 Z M94.0577428,10.4281535 C94.6662249,10.4281535 95.0783141,10.6420605 95.5613233,11.1607116 L97.1370821,9.58885116 C96.3133234,8.73154884 95.3464663,8.33806046 94.0577428,8.33806046 C92.1957874,8.33806046 89.8860729,9.32094416 89.8860729,13.0892232 C89.8860729,16.8575023 92.1957874,17.8575488 94.0577428,17.8575488 C95.3464663,17.8575488 96.3133234,17.4468977 97.1370821,16.5891768 L95.5613233,15.0357349 C95.0783141,15.5535488 94.6662249,15.7674558 94.0577428,15.7674558 C93.5025553,15.7674558 93.0728413,15.5715488 92.7329304,15.1608977 C92.3745555,14.7142465 92.2138324,14.0712698 92.2138324,13.0892232 C92.2138324,12.1063395 92.3745555,11.4817814 92.7329304,11.0355488 C93.0728413,10.6240605 93.5025553,10.4281535 94.0577428,10.4281535 L94.0577428,10.4281535 Z M87.0400553,4.37387442 C86.2343409,4.37387442 85.5721446,5.01685116 85.5721446,5.82015347 C85.5721446,6.62387439 86.2343409,7.28485116 87.0400553,7.28485116 C87.8457696,7.28485116 88.4903411,6.62387439 88.4903411,5.82015347 C88.4903411,5.01685116 87.8457696,4.37387442 87.0400553,4.37387442 L87.0400553,4.37387442 Z M85.8763856,17.7503861 L88.2041445,17.7503861 L88.2041445,8.44564185 L85.8763856,8.44564185 L85.8763856,17.7503861 Z M81.5989663,12.0887581 L80.1310556,11.9460139 C79.3072963,11.8748512 79.164198,11.4817814 79.164198,11.1427116 C79.164198,10.6780605 79.5578231,10.2498279 80.4890109,10.2498279 C81.2943056,10.2498279 82.1180644,10.3921535 82.6552069,10.8743861 L84.0874483,9.42810699 C83.1919303,8.58838607 81.9749661,8.33806046 80.5246802,8.33806046 C78.6270555,8.33806046 76.9262428,9.37410699 76.9262428,11.3030372 C76.9262428,13.0176419 77.9644395,13.7497814 79.6472072,13.9105256 L81.1155375,14.0532698 C81.8494931,14.1252698 82.1000194,14.4463395 82.1000194,14.9109907 C82.1000194,15.6075488 81.2586358,15.8750372 80.4529215,15.8750372 C79.7370109,15.8750372 78.7340644,15.7674558 77.9644395,14.9997349 L76.4428146,16.5180139 C77.6245286,17.6968046 78.9489214,17.8575488 80.4172517,17.8575488 C82.619118,17.8575488 84.3740646,16.8755023 84.3740646,14.8218279 C84.3740646,13.2495488 83.4428768,12.2675023 81.5989663,12.0887581 L81.5989663,12.0887581 Z M73.9199216,3.92722325 L71.4671089,3.92722325 L70.3214837,6.96294416 L71.8791981,6.96294416 L73.9199216,3.92722325 Z M72.8632609,14.0712698 C72.8632609,15.3392232 72.0399212,15.7674558 71.3059661,15.7674558 C70.5715909,15.7674558 69.7658766,15.3392232 69.7658766,14.0712698 L69.7658766,8.44564185 L67.4385373,8.44564185 L67.4385373,14.3923395 C67.4385373,15.4108046 67.6357695,16.286107 68.3873499,17.0358279 C68.9068676,17.5540605 69.6584481,17.8575488 70.5896359,17.8575488 C71.4490644,17.8575488 72.308493,17.5360605 72.9169751,16.8930837 L72.9169751,17.7503861 L75.1910198,17.7503861 L75.1910198,8.44564185 L72.8632609,8.44564185 L72.8632609,14.0712698 Z M64.4691448,9.15978139 C65.2211449,9.90992093 65.4897161,10.7852232 65.4897161,11.8032698 L65.4897161,17.7503861 L63.1623769,17.7503861 L63.1623769,12.1243395 C63.1623769,10.8563861 62.3566626,10.4281535 61.6227069,10.4281535 C60.9063767,10.4281535 60.0649931,10.8563861 60.0649931,12.0711768 L60.0649931,17.7503861 L57.7372337,17.7503861 L57.7372337,12.1243395 C57.7372337,10.8563861 56.9319396,10.4281535 56.1975643,10.4281535 C55.4636089,10.4281535 54.6402696,10.8563861 54.6402696,12.1243395 L54.6402696,17.7503861 L52.3129304,17.7503861 L52.3129304,8.44564185 L54.5865554,8.44564185 L54.5865554,9.30294416 C55.1954571,8.67754884 56.0548857,8.33806046 56.9138946,8.33806046 C57.9525109,8.33806046 58.7938944,8.71354884 59.3847518,9.51726977 C60.1724216,8.69554884 61.0138052,8.33806046 62.1774748,8.33806046 C63.1086626,8.33806046 63.9500462,8.64238607 64.4691448,9.15978139 L64.4691448,9.15978139 Z"/>
    <path fill="#E3262E" d="M31.0876045,7.99032561 L30.1870509,8.23772092 C29.5596848,8.48469769 28.9982027,8.91125584 28.5248455,9.56051162 L28.5248455,8.37125584 L26.301158,8.35032561 L26.301158,17.6847907 L28.6146491,17.6847907 L28.6146491,13.2195349 C28.6146491,12.4555814 28.7057116,11.9185116 28.9083991,11.5802791 C29.0640866,11.2227907 29.356158,10.9306046 29.7170509,10.6840465 C30.1203277,10.4136279 30.5466848,10.2788372 30.9973813,10.2788372 L31.7149705,10.3248837 L31.6935687,7.94469769 L31.0876045,7.99032561 Z M12.9816938,17.6839535 L15.3178455,17.6839535 L15.3178455,5.52265116 L12.9816938,5.52265116 L12.9816938,17.6839535 Z M22.2809795,12.9286046 L21.8323812,13.1726512 L20.6640955,13.4644186 C20.1693366,13.5322325 19.7883009,13.6444186 19.5629527,13.7787907 C19.1827563,14.0261861 19.0014706,14.364 19.0014706,14.8345116 C19.0014706,15.2606512 19.1156134,15.5511628 19.3388634,15.7546046 C19.5629527,15.9325116 19.8332027,16.0225116 20.1693366,16.0225116 C20.7089973,16.0225116 21.1802563,15.8651163 21.6301134,15.5511628 C22.0560509,15.2372093 22.2809795,14.6758605 22.2809795,13.8700465 L22.2809795,12.9286046 Z M24.7312741,10.8175814 L24.7312741,17.6843721 L22.3930241,17.6843721 L22.3930241,16.7186512 C21.6737562,17.3473954 20.6640955,17.6613488 19.3846044,17.6843721 C18.5965152,17.6613488 17.9460687,17.4382325 17.4739705,17.0334418 C16.9359884,16.539907 16.6669973,15.8651163 16.6888187,15.0379535 C16.6669973,13.8461861 17.0925152,13.0173488 17.9678902,12.5007907 C18.4861491,12.2077675 19.1588366,12.0072558 19.9893098,11.8938139 L21.7870598,11.6037209 C22.1454348,11.4475814 22.3258813,11.198093 22.3258813,10.8853954 C22.3028009,10.5044651 22.1907562,10.2340465 21.9217652,10.0996744 C21.6527741,9.94186046 21.2708991,9.85102324 20.7778187,9.8748837 C20.192417,9.85102324 19.7883009,10.0096744 19.5415509,10.3253023 C19.3846044,10.5044651 19.2486402,10.7736279 19.2049973,11.1775814 L16.8680063,11.1775814 C16.9359884,10.3253023 17.1386759,9.65009301 17.5419527,9.13479069 C18.1705777,8.30469769 19.2713009,7.87730231 20.8441223,7.90074416 C21.8546223,7.87730231 22.7522384,8.08074416 23.5608902,8.5068837 C24.3242205,8.91083722 24.7312741,9.6948837 24.7312741,10.8175814 L24.7312741,10.8175814 Z M6.01814019,7.83418607 C6.73782767,7.83418607 7.3891134,8.0351163 8.01773837,8.43990699 C8.58005983,8.82167439 9.02907771,9.35958139 9.34339016,9.98748838 L11.7915866,9.98748838 C11.4323723,8.68646514 10.7357652,7.60897676 9.67952413,6.78055815 C8.60314016,5.92660463 7.36729194,5.50046512 6.01814019,5.52265116 C4.33495268,5.50046512 2.94047947,6.08358139 1.77345268,7.29460462 C0.583345536,8.48469769 4.19642857e-05,9.89706977 4.19642857e-05,11.5802791 C4.19642857e-05,13.2400465 0.583345536,14.7005581 1.77345268,15.8885581 C2.94047947,17.0543721 4.33495268,17.6391628 6.01814019,17.6391628 C7.36729194,17.6391628 8.60314016,17.2347907 9.67952413,16.4038605 C10.7357652,15.5511628 11.4323723,14.4975349 11.7915866,13.196093 L9.34339016,13.196093 C9.02907771,13.8248372 8.58005983,14.3388837 8.01773837,14.744093 C7.3891134,15.1266977 6.73782767,15.3280465 6.01814019,15.3280465 C4.98581875,15.3280465 4.11044375,14.9462791 3.39033661,14.2266977 C2.65092589,13.4874418 2.29045268,12.6146512 2.31269375,11.5802791 C2.29045268,10.5492558 2.65092589,9.6731163 3.39033661,8.93386046 C4.11044375,8.21553486 4.98581875,7.83418607 6.01814019,7.83418607 L6.01814019,7.83418607 Z M39.3528902,12.8369302 C39.3293902,12.0976744 39.0826402,11.4898605 38.6097027,10.9975814 C38.0939616,10.4822791 37.4879973,10.2340465 36.7691491,10.2570698 C36.0733813,10.2340465 35.4665777,10.4822791 34.972658,10.9975814 C34.4778991,11.4898605 34.2080687,12.0976744 34.2080687,12.8369302 C34.2080687,13.5322325 34.4778991,14.1383721 34.972658,14.6549302 C35.4665777,15.1723256 36.0733813,15.4163721 36.7691491,15.4163721 C37.4879973,15.4163721 38.0939616,15.1723256 38.5878813,14.6549302 C39.0826402,14.1383721 39.3293902,13.5322325 39.3528902,12.8369302 L39.3528902,12.8369302 Z M40.2278455,9.35958139 C41.1712027,10.3253023 41.6433009,11.4898605 41.6433009,12.8369302 C41.6433009,14.1831628 41.1712027,15.3493954 40.2278455,16.292093 C39.2622473,17.2582325 38.0939616,17.750093 36.7691491,17.750093 C35.4439169,17.750093 34.297033,17.2582325 33.3553544,16.292093 C32.387658,15.3493954 31.9172384,14.1831628 31.9172384,12.8369302 C31.9172384,11.4898605 32.387658,10.3253023 33.3553544,9.35958139 C34.297033,8.39553486 35.4439169,7.92251162 36.7691491,7.92251162 C38.0939616,7.92251162 39.2622473,8.39553486 40.2278455,9.35958139 L40.2278455,9.35958139 Z M43.0826759,12.7021395 L49.2606581,12.7021395 L49.2606581,10.6158139 L43.0826759,10.6158139 L43.0826759,12.7021395 Z M36.0058187,6.03795347 L38.0952205,6.03795347 L38.0952205,0 L36.0058187,0 L36.0058187,6.03795347 Z M47.6886759,2.64934884 L42.0482563,8.28167439 L40.5664973,6.80023254 L46.2052384,1.16958139 L47.6886759,2.64934884 Z"/>
  </g>
</svg>
